<?xml version="1.0" encoding="utf-8" standalone="no"?>
<!DOCTYPE svg PUBLIC "-//W3C//DTD SVG 1.1//EN"
  "http://www.w3.org/Graphics/SVG/1.1/DTD/svg11.dtd">
<!-- Created with matplotlib (http://matplotlib.org/) -->
<svg height="345pt" version="1.1" viewBox="0 0 460 345" width="460pt" xmlns="http://www.w3.org/2000/svg" xmlns:xlink="http://www.w3.org/1999/xlink">
 <defs>
  <style type="text/css">
*{stroke-linecap:butt;stroke-linejoin:round;}
  </style>
 </defs>
 <g id="figure_1">
  <g id="patch_1">
   <path d="M 0 345.6 
L 460.8 345.6 
L 460.8 0 
L 0 0 
z
"/>
  </g>
  <g id="axes_1">
   <g id="patch_2">
    <path d="M 57.6 307.584 
L 414.72 307.584 
L 414.72 41.472 
L 57.6 41.472 
z
"/>
   </g>
   <g id="matplotlib.axis_1">
    <g id="xtick_1">
     <g id="line2d_1">
      <defs>
       <path d="M 0 0 
L 0 3.5 
" id="m843c037a26" style="stroke:#ffffff;stroke-width:0.8;"/>
      </defs>
      <g>
       <use style="fill:#ffffff;stroke:#ffffff;stroke-width:0.8;" x="73.832727" xlink:href="#m843c037a26" y="307.584"/>
      </g>
     </g>
     <g id="text_1">
      <!-- 600 -->
      <defs>
       <path d="M 33.015625 40.375 
Q 26.375 40.375 22.484375 35.828125 
Q 18.609375 31.296875 18.609375 23.390625 
Q 18.609375 15.53125 22.484375 10.953125 
Q 26.375 6.390625 33.015625 6.390625 
Q 39.65625 6.390625 43.53125 10.953125 
Q 47.40625 15.53125 47.40625 23.390625 
Q 47.40625 31.296875 43.53125 35.828125 
Q 39.65625 40.375 33.015625 40.375 
z
M 52.59375 71.296875 
L 52.59375 62.3125 
Q 48.875 64.0625 45.09375 64.984375 
Q 41.3125 65.921875 37.59375 65.921875 
Q 27.828125 65.921875 22.671875 59.328125 
Q 17.53125 52.734375 16.796875 39.40625 
Q 19.671875 43.65625 24.015625 45.921875 
Q 28.375 48.1875 33.59375 48.1875 
Q 44.578125 48.1875 50.953125 41.515625 
Q 57.328125 34.859375 57.328125 23.390625 
Q 57.328125 12.15625 50.6875 5.359375 
Q 44.046875 -1.421875 33.015625 -1.421875 
Q 20.359375 -1.421875 13.671875 8.265625 
Q 6.984375 17.96875 6.984375 36.375 
Q 6.984375 53.65625 15.1875 63.9375 
Q 23.390625 74.21875 37.203125 74.21875 
Q 40.921875 74.21875 44.703125 73.484375 
Q 48.484375 72.75 52.59375 71.296875 
z
" id="DejaVuSans-36"/>
       <path d="M 31.78125 66.40625 
Q 24.171875 66.40625 20.328125 58.90625 
Q 16.5 51.421875 16.5 36.375 
Q 16.5 21.390625 20.328125 13.890625 
Q 24.171875 6.390625 31.78125 6.390625 
Q 39.453125 6.390625 43.28125 13.890625 
Q 47.125 21.390625 47.125 36.375 
Q 47.125 51.421875 43.28125 58.90625 
Q 39.453125 66.40625 31.78125 66.40625 
z
M 31.78125 74.21875 
Q 44.046875 74.21875 50.515625 64.515625 
Q 56.984375 54.828125 56.984375 36.375 
Q 56.984375 17.96875 50.515625 8.265625 
Q 44.046875 -1.421875 31.78125 -1.421875 
Q 19.53125 -1.421875 13.0625 8.265625 
Q 6.59375 17.96875 6.59375 36.375 
Q 6.59375 54.828125 13.0625 64.515625 
Q 19.53125 74.21875 31.78125 74.21875 
z
" id="DejaVuSans-30"/>
      </defs>
      <g style="fill:#ffffff;" transform="translate(64.288977 322.182437)scale(0.1 -0.1)">
       <use xlink:href="#DejaVuSans-36"/>
       <use x="63.623047" xlink:href="#DejaVuSans-30"/>
       <use x="127.246094" xlink:href="#DejaVuSans-30"/>
      </g>
     </g>
    </g>
    <g id="xtick_2">
     <g id="line2d_2">
      <g>
       <use style="fill:#ffffff;stroke:#ffffff;stroke-width:0.8;" x="114.414545" xlink:href="#m843c037a26" y="307.584"/>
      </g>
     </g>
     <g id="text_2">
      <!-- 650 -->
      <defs>
       <path d="M 10.796875 72.90625 
L 49.515625 72.90625 
L 49.515625 64.59375 
L 19.828125 64.59375 
L 19.828125 46.734375 
Q 21.96875 47.46875 24.109375 47.828125 
Q 26.265625 48.1875 28.421875 48.1875 
Q 40.625 48.1875 47.75 41.5 
Q 54.890625 34.8125 54.890625 23.390625 
Q 54.890625 11.625 47.5625 5.09375 
Q 40.234375 -1.421875 26.90625 -1.421875 
Q 22.3125 -1.421875 17.546875 -0.640625 
Q 12.796875 0.140625 7.71875 1.703125 
L 7.71875 11.625 
Q 12.109375 9.234375 16.796875 8.0625 
Q 21.484375 6.890625 26.703125 6.890625 
Q 35.15625 6.890625 40.078125 11.328125 
Q 45.015625 15.765625 45.015625 23.390625 
Q 45.015625 31 40.078125 35.4375 
Q 35.15625 39.890625 26.703125 39.890625 
Q 22.75 39.890625 18.8125 39.015625 
Q 14.890625 38.140625 10.796875 36.28125 
z
" id="DejaVuSans-35"/>
      </defs>
      <g style="fill:#ffffff;" transform="translate(104.870795 322.182437)scale(0.1 -0.1)">
       <use xlink:href="#DejaVuSans-36"/>
       <use x="63.623047" xlink:href="#DejaVuSans-35"/>
       <use x="127.246094" xlink:href="#DejaVuSans-30"/>
      </g>
     </g>
    </g>
    <g id="xtick_3">
     <g id="line2d_3">
      <g>
       <use style="fill:#ffffff;stroke:#ffffff;stroke-width:0.8;" x="154.996364" xlink:href="#m843c037a26" y="307.584"/>
      </g>
     </g>
     <g id="text_3">
      <!-- 700 -->
      <defs>
       <path d="M 8.203125 72.90625 
L 55.078125 72.90625 
L 55.078125 68.703125 
L 28.609375 0 
L 18.3125 0 
L 43.21875 64.59375 
L 8.203125 64.59375 
z
" id="DejaVuSans-37"/>
      </defs>
      <g style="fill:#ffffff;" transform="translate(145.452614 322.182437)scale(0.1 -0.1)">
       <use xlink:href="#DejaVuSans-37"/>
       <use x="63.623047" xlink:href="#DejaVuSans-30"/>
       <use x="127.246094" xlink:href="#DejaVuSans-30"/>
      </g>
     </g>
    </g>
    <g id="xtick_4">
     <g id="line2d_4">
      <g>
       <use style="fill:#ffffff;stroke:#ffffff;stroke-width:0.8;" x="195.578182" xlink:href="#m843c037a26" y="307.584"/>
      </g>
     </g>
     <g id="text_4">
      <!-- 750 -->
      <g style="fill:#ffffff;" transform="translate(186.034432 322.182437)scale(0.1 -0.1)">
       <use xlink:href="#DejaVuSans-37"/>
       <use x="63.623047" xlink:href="#DejaVuSans-35"/>
       <use x="127.246094" xlink:href="#DejaVuSans-30"/>
      </g>
     </g>
    </g>
    <g id="xtick_5">
     <g id="line2d_5">
      <g>
       <use style="fill:#ffffff;stroke:#ffffff;stroke-width:0.8;" x="236.16" xlink:href="#m843c037a26" y="307.584"/>
      </g>
     </g>
     <g id="text_5">
      <!-- 800 -->
      <defs>
       <path d="M 31.78125 34.625 
Q 24.75 34.625 20.71875 30.859375 
Q 16.703125 27.09375 16.703125 20.515625 
Q 16.703125 13.921875 20.71875 10.15625 
Q 24.75 6.390625 31.78125 6.390625 
Q 38.8125 6.390625 42.859375 10.171875 
Q 46.921875 13.96875 46.921875 20.515625 
Q 46.921875 27.09375 42.890625 30.859375 
Q 38.875 34.625 31.78125 34.625 
z
M 21.921875 38.8125 
Q 15.578125 40.375 12.03125 44.71875 
Q 8.5 49.078125 8.5 55.328125 
Q 8.5 64.0625 14.71875 69.140625 
Q 20.953125 74.21875 31.78125 74.21875 
Q 42.671875 74.21875 48.875 69.140625 
Q 55.078125 64.0625 55.078125 55.328125 
Q 55.078125 49.078125 51.53125 44.71875 
Q 48 40.375 41.703125 38.8125 
Q 48.828125 37.15625 52.796875 32.3125 
Q 56.78125 27.484375 56.78125 20.515625 
Q 56.78125 9.90625 50.3125 4.234375 
Q 43.84375 -1.421875 31.78125 -1.421875 
Q 19.734375 -1.421875 13.25 4.234375 
Q 6.78125 9.90625 6.78125 20.515625 
Q 6.78125 27.484375 10.78125 32.3125 
Q 14.796875 37.15625 21.921875 38.8125 
z
M 18.3125 54.390625 
Q 18.3125 48.734375 21.84375 45.5625 
Q 25.390625 42.390625 31.78125 42.390625 
Q 38.140625 42.390625 41.71875 45.5625 
Q 45.3125 48.734375 45.3125 54.390625 
Q 45.3125 60.0625 41.71875 63.234375 
Q 38.140625 66.40625 31.78125 66.40625 
Q 25.390625 66.40625 21.84375 63.234375 
Q 18.3125 60.0625 18.3125 54.390625 
z
" id="DejaVuSans-38"/>
      </defs>
      <g style="fill:#ffffff;" transform="translate(226.61625 322.182437)scale(0.1 -0.1)">
       <use xlink:href="#DejaVuSans-38"/>
       <use x="63.623047" xlink:href="#DejaVuSans-30"/>
       <use x="127.246094" xlink:href="#DejaVuSans-30"/>
      </g>
     </g>
    </g>
    <g id="xtick_6">
     <g id="line2d_6">
      <g>
       <use style="fill:#ffffff;stroke:#ffffff;stroke-width:0.8;" x="276.741818" xlink:href="#m843c037a26" y="307.584"/>
      </g>
     </g>
     <g id="text_6">
      <!-- 850 -->
      <g style="fill:#ffffff;" transform="translate(267.198068 322.182437)scale(0.1 -0.1)">
       <use xlink:href="#DejaVuSans-38"/>
       <use x="63.623047" xlink:href="#DejaVuSans-35"/>
       <use x="127.246094" xlink:href="#DejaVuSans-30"/>
      </g>
     </g>
    </g>
    <g id="xtick_7">
     <g id="line2d_7">
      <g>
       <use style="fill:#ffffff;stroke:#ffffff;stroke-width:0.8;" x="317.323636" xlink:href="#m843c037a26" y="307.584"/>
      </g>
     </g>
     <g id="text_7">
      <!-- 900 -->
      <defs>
       <path d="M 10.984375 1.515625 
L 10.984375 10.5 
Q 14.703125 8.734375 18.5 7.8125 
Q 22.3125 6.890625 25.984375 6.890625 
Q 35.75 6.890625 40.890625 13.453125 
Q 46.046875 20.015625 46.78125 33.40625 
Q 43.953125 29.203125 39.59375 26.953125 
Q 35.25 24.703125 29.984375 24.703125 
Q 19.046875 24.703125 12.671875 31.3125 
Q 6.296875 37.9375 6.296875 49.421875 
Q 6.296875 60.640625 12.9375 67.421875 
Q 19.578125 74.21875 30.609375 74.21875 
Q 43.265625 74.21875 49.921875 64.515625 
Q 56.59375 54.828125 56.59375 36.375 
Q 56.59375 19.140625 48.40625 8.859375 
Q 40.234375 -1.421875 26.421875 -1.421875 
Q 22.703125 -1.421875 18.890625 -0.6875 
Q 15.09375 0.046875 10.984375 1.515625 
z
M 30.609375 32.421875 
Q 37.25 32.421875 41.125 36.953125 
Q 45.015625 41.5 45.015625 49.421875 
Q 45.015625 57.28125 41.125 61.84375 
Q 37.25 66.40625 30.609375 66.40625 
Q 23.96875 66.40625 20.09375 61.84375 
Q 16.21875 57.28125 16.21875 49.421875 
Q 16.21875 41.5 20.09375 36.953125 
Q 23.96875 32.421875 30.609375 32.421875 
z
" id="DejaVuSans-39"/>
      </defs>
      <g style="fill:#ffffff;" transform="translate(307.779886 322.182437)scale(0.1 -0.1)">
       <use xlink:href="#DejaVuSans-39"/>
       <use x="63.623047" xlink:href="#DejaVuSans-30"/>
       <use x="127.246094" xlink:href="#DejaVuSans-30"/>
      </g>
     </g>
    </g>
    <g id="xtick_8">
     <g id="line2d_8">
      <g>
       <use style="fill:#ffffff;stroke:#ffffff;stroke-width:0.8;" x="357.905455" xlink:href="#m843c037a26" y="307.584"/>
      </g>
     </g>
     <g id="text_8">
      <!-- 950 -->
      <g style="fill:#ffffff;" transform="translate(348.361705 322.182437)scale(0.1 -0.1)">
       <use xlink:href="#DejaVuSans-39"/>
       <use x="63.623047" xlink:href="#DejaVuSans-35"/>
       <use x="127.246094" xlink:href="#DejaVuSans-30"/>
      </g>
     </g>
    </g>
    <g id="xtick_9">
     <g id="line2d_9">
      <g>
       <use style="fill:#ffffff;stroke:#ffffff;stroke-width:0.8;" x="398.487273" xlink:href="#m843c037a26" y="307.584"/>
      </g>
     </g>
     <g id="text_9">
      <!-- 1000 -->
      <defs>
       <path d="M 12.40625 8.296875 
L 28.515625 8.296875 
L 28.515625 63.921875 
L 10.984375 60.40625 
L 10.984375 69.390625 
L 28.421875 72.90625 
L 38.28125 72.90625 
L 38.28125 8.296875 
L 54.390625 8.296875 
L 54.390625 0 
L 12.40625 0 
z
" id="DejaVuSans-31"/>
      </defs>
      <g style="fill:#ffffff;" transform="translate(385.762273 322.182437)scale(0.1 -0.1)">
       <use xlink:href="#DejaVuSans-31"/>
       <use x="63.623047" xlink:href="#DejaVuSans-30"/>
       <use x="127.246094" xlink:href="#DejaVuSans-30"/>
       <use x="190.869141" xlink:href="#DejaVuSans-30"/>
      </g>
     </g>
    </g>
    <g id="text_10">
     <!-- Resolution -->
     <defs>
      <path d="M 44.390625 34.1875 
Q 47.5625 33.109375 50.5625 29.59375 
Q 53.5625 26.078125 56.59375 19.921875 
L 66.609375 0 
L 56 0 
L 46.6875 18.703125 
Q 43.0625 26.03125 39.671875 28.421875 
Q 36.28125 30.8125 30.421875 30.8125 
L 19.671875 30.8125 
L 19.671875 0 
L 9.8125 0 
L 9.8125 72.90625 
L 32.078125 72.90625 
Q 44.578125 72.90625 50.734375 67.671875 
Q 56.890625 62.453125 56.890625 51.90625 
Q 56.890625 45.015625 53.6875 40.46875 
Q 50.484375 35.9375 44.390625 34.1875 
z
M 19.671875 64.796875 
L 19.671875 38.921875 
L 32.078125 38.921875 
Q 39.203125 38.921875 42.84375 42.21875 
Q 46.484375 45.515625 46.484375 51.90625 
Q 46.484375 58.296875 42.84375 61.546875 
Q 39.203125 64.796875 32.078125 64.796875 
z
" id="DejaVuSans-52"/>
      <path d="M 56.203125 29.59375 
L 56.203125 25.203125 
L 14.890625 25.203125 
Q 15.484375 15.921875 20.484375 11.0625 
Q 25.484375 6.203125 34.421875 6.203125 
Q 39.59375 6.203125 44.453125 7.46875 
Q 49.3125 8.734375 54.109375 11.28125 
L 54.109375 2.78125 
Q 49.265625 0.734375 44.1875 -0.34375 
Q 39.109375 -1.421875 33.890625 -1.421875 
Q 20.796875 -1.421875 13.15625 6.1875 
Q 5.515625 13.8125 5.515625 26.8125 
Q 5.515625 40.234375 12.765625 48.109375 
Q 20.015625 56 32.328125 56 
Q 43.359375 56 49.78125 48.890625 
Q 56.203125 41.796875 56.203125 29.59375 
z
M 47.21875 32.234375 
Q 47.125 39.59375 43.09375 43.984375 
Q 39.0625 48.390625 32.421875 48.390625 
Q 24.90625 48.390625 20.390625 44.140625 
Q 15.875 39.890625 15.1875 32.171875 
z
" id="DejaVuSans-65"/>
      <path d="M 44.28125 53.078125 
L 44.28125 44.578125 
Q 40.484375 46.53125 36.375 47.5 
Q 32.28125 48.484375 27.875 48.484375 
Q 21.1875 48.484375 17.84375 46.4375 
Q 14.5 44.390625 14.5 40.28125 
Q 14.5 37.15625 16.890625 35.375 
Q 19.28125 33.59375 26.515625 31.984375 
L 29.59375 31.296875 
Q 39.15625 29.25 43.1875 25.515625 
Q 47.21875 21.78125 47.21875 15.09375 
Q 47.21875 7.46875 41.1875 3.015625 
Q 35.15625 -1.421875 24.609375 -1.421875 
Q 20.21875 -1.421875 15.453125 -0.5625 
Q 10.6875 0.296875 5.421875 2 
L 5.421875 11.28125 
Q 10.40625 8.6875 15.234375 7.390625 
Q 20.0625 6.109375 24.8125 6.109375 
Q 31.15625 6.109375 34.5625 8.28125 
Q 37.984375 10.453125 37.984375 14.40625 
Q 37.984375 18.0625 35.515625 20.015625 
Q 33.0625 21.96875 24.703125 23.78125 
L 21.578125 24.515625 
Q 13.234375 26.265625 9.515625 29.90625 
Q 5.8125 33.546875 5.8125 39.890625 
Q 5.8125 47.609375 11.28125 51.796875 
Q 16.75 56 26.8125 56 
Q 31.78125 56 36.171875 55.265625 
Q 40.578125 54.546875 44.28125 53.078125 
z
" id="DejaVuSans-73"/>
      <path d="M 30.609375 48.390625 
Q 23.390625 48.390625 19.1875 42.75 
Q 14.984375 37.109375 14.984375 27.296875 
Q 14.984375 17.484375 19.15625 11.84375 
Q 23.34375 6.203125 30.609375 6.203125 
Q 37.796875 6.203125 41.984375 11.859375 
Q 46.1875 17.53125 46.1875 27.296875 
Q 46.1875 37.015625 41.984375 42.703125 
Q 37.796875 48.390625 30.609375 48.390625 
z
M 30.609375 56 
Q 42.328125 56 49.015625 48.375 
Q 55.71875 40.765625 55.71875 27.296875 
Q 55.71875 13.875 49.015625 6.21875 
Q 42.328125 -1.421875 30.609375 -1.421875 
Q 18.84375 -1.421875 12.171875 6.21875 
Q 5.515625 13.875 5.515625 27.296875 
Q 5.515625 40.765625 12.171875 48.375 
Q 18.84375 56 30.609375 56 
z
" id="DejaVuSans-6f"/>
      <path d="M 9.421875 75.984375 
L 18.40625 75.984375 
L 18.40625 0 
L 9.421875 0 
z
" id="DejaVuSans-6c"/>
      <path d="M 8.5 21.578125 
L 8.5 54.6875 
L 17.484375 54.6875 
L 17.484375 21.921875 
Q 17.484375 14.15625 20.5 10.265625 
Q 23.53125 6.390625 29.59375 6.390625 
Q 36.859375 6.390625 41.078125 11.03125 
Q 45.3125 15.671875 45.3125 23.6875 
L 45.3125 54.6875 
L 54.296875 54.6875 
L 54.296875 0 
L 45.3125 0 
L 45.3125 8.40625 
Q 42.046875 3.421875 37.71875 1 
Q 33.40625 -1.421875 27.6875 -1.421875 
Q 18.265625 -1.421875 13.375 4.4375 
Q 8.5 10.296875 8.5 21.578125 
z
M 31.109375 56 
z
" id="DejaVuSans-75"/>
      <path d="M 18.3125 70.21875 
L 18.3125 54.6875 
L 36.8125 54.6875 
L 36.8125 47.703125 
L 18.3125 47.703125 
L 18.3125 18.015625 
Q 18.3125 11.328125 20.140625 9.421875 
Q 21.96875 7.515625 27.59375 7.515625 
L 36.8125 7.515625 
L 36.8125 0 
L 27.59375 0 
Q 17.1875 0 13.234375 3.875 
Q 9.28125 7.765625 9.28125 18.015625 
L 9.28125 47.703125 
L 2.6875 47.703125 
L 2.6875 54.6875 
L 9.28125 54.6875 
L 9.28125 70.21875 
z
" id="DejaVuSans-74"/>
      <path d="M 9.421875 54.6875 
L 18.40625 54.6875 
L 18.40625 0 
L 9.421875 0 
z
M 9.421875 75.984375 
L 18.40625 75.984375 
L 18.40625 64.59375 
L 9.421875 64.59375 
z
" id="DejaVuSans-69"/>
      <path d="M 54.890625 33.015625 
L 54.890625 0 
L 45.90625 0 
L 45.90625 32.71875 
Q 45.90625 40.484375 42.875 44.328125 
Q 39.84375 48.1875 33.796875 48.1875 
Q 26.515625 48.1875 22.3125 43.546875 
Q 18.109375 38.921875 18.109375 30.90625 
L 18.109375 0 
L 9.078125 0 
L 9.078125 54.6875 
L 18.109375 54.6875 
L 18.109375 46.1875 
Q 21.34375 51.125 25.703125 53.5625 
Q 30.078125 56 35.796875 56 
Q 45.21875 56 50.046875 50.171875 
Q 54.890625 44.34375 54.890625 33.015625 
z
" id="DejaVuSans-6e"/>
     </defs>
     <g style="fill:#ffffff;" transform="translate(209.813125 335.860562)scale(0.1 -0.1)">
      <use xlink:href="#DejaVuSans-52"/>
      <use x="69.419922" xlink:href="#DejaVuSans-65"/>
      <use x="130.943359" xlink:href="#DejaVuSans-73"/>
      <use x="183.042969" xlink:href="#DejaVuSans-6f"/>
      <use x="244.224609" xlink:href="#DejaVuSans-6c"/>
      <use x="272.007812" xlink:href="#DejaVuSans-75"/>
      <use x="335.386719" xlink:href="#DejaVuSans-74"/>
      <use x="374.595703" xlink:href="#DejaVuSans-69"/>
      <use x="402.378906" xlink:href="#DejaVuSans-6f"/>
      <use x="463.560547" xlink:href="#DejaVuSans-6e"/>
     </g>
    </g>
   </g>
   <g id="matplotlib.axis_2">
    <g id="ytick_1">
     <g id="line2d_10">
      <defs>
       <path d="M 0 0 
L -3.5 0 
" id="m222de991ec" style="stroke:#ffffff;stroke-width:0.8;"/>
      </defs>
      <g>
       <use style="fill:#ffffff;stroke:#ffffff;stroke-width:0.8;" x="57.6" xlink:href="#m222de991ec" y="76.373342"/>
      </g>
     </g>
     <g id="text_11">
      <!-- $\mathdefault{10^{-3}}$ -->
      <defs>
       <path d="M 10.59375 35.5 
L 73.1875 35.5 
L 73.1875 27.203125 
L 10.59375 27.203125 
z
" id="DejaVuSans-2212"/>
       <path d="M 40.578125 39.3125 
Q 47.65625 37.796875 51.625 33 
Q 55.609375 28.21875 55.609375 21.1875 
Q 55.609375 10.40625 48.1875 4.484375 
Q 40.765625 -1.421875 27.09375 -1.421875 
Q 22.515625 -1.421875 17.65625 -0.515625 
Q 12.796875 0.390625 7.625 2.203125 
L 7.625 11.71875 
Q 11.71875 9.328125 16.59375 8.109375 
Q 21.484375 6.890625 26.8125 6.890625 
Q 36.078125 6.890625 40.9375 10.546875 
Q 45.796875 14.203125 45.796875 21.1875 
Q 45.796875 27.640625 41.28125 31.265625 
Q 36.765625 34.90625 28.71875 34.90625 
L 20.21875 34.90625 
L 20.21875 43.015625 
L 29.109375 43.015625 
Q 36.375 43.015625 40.234375 45.921875 
Q 44.09375 48.828125 44.09375 54.296875 
Q 44.09375 59.90625 40.109375 62.90625 
Q 36.140625 65.921875 28.71875 65.921875 
Q 24.65625 65.921875 20.015625 65.03125 
Q 15.375 64.15625 9.8125 62.3125 
L 9.8125 71.09375 
Q 15.4375 72.65625 20.34375 73.4375 
Q 25.25 74.21875 29.59375 74.21875 
Q 40.828125 74.21875 47.359375 69.109375 
Q 53.90625 64.015625 53.90625 55.328125 
Q 53.90625 49.265625 50.4375 45.09375 
Q 46.96875 40.921875 40.578125 39.3125 
z
" id="DejaVuSans-33"/>
      </defs>
      <g style="fill:#ffffff;" transform="translate(27.1 80.172561)scale(0.1 -0.1)">
       <use transform="translate(0 0.765625)" xlink:href="#DejaVuSans-31"/>
       <use transform="translate(63.623047 0.765625)" xlink:href="#DejaVuSans-30"/>
       <use transform="translate(128.203125 39.046875)scale(0.7)" xlink:href="#DejaVuSans-2212"/>
       <use transform="translate(186.855469 39.046875)scale(0.7)" xlink:href="#DejaVuSans-33"/>
      </g>
     </g>
    </g>
    <g id="ytick_2">
     <g id="line2d_11">
      <defs>
       <path d="M 0 0 
L -2 0 
" id="m3bfcd201ac" style="stroke:#ffffff;stroke-width:0.6;"/>
      </defs>
      <g>
       <use style="fill:#ffffff;stroke:#ffffff;stroke-width:0.6;" x="57.6" xlink:href="#m3bfcd201ac" y="276.444125"/>
      </g>
     </g>
     <g id="text_12">
      <!-- $\mathdefault{2\times10^{-4}}$ -->
      <defs>
       <path d="M 19.1875 8.296875 
L 53.609375 8.296875 
L 53.609375 0 
L 7.328125 0 
L 7.328125 8.296875 
Q 12.9375 14.109375 22.625 23.890625 
Q 32.328125 33.6875 34.8125 36.53125 
Q 39.546875 41.84375 41.421875 45.53125 
Q 43.3125 49.21875 43.3125 52.78125 
Q 43.3125 58.59375 39.234375 62.25 
Q 35.15625 65.921875 28.609375 65.921875 
Q 23.96875 65.921875 18.8125 64.3125 
Q 13.671875 62.703125 7.8125 59.421875 
L 7.8125 69.390625 
Q 13.765625 71.78125 18.9375 73 
Q 24.125 74.21875 28.421875 74.21875 
Q 39.75 74.21875 46.484375 68.546875 
Q 53.21875 62.890625 53.21875 53.421875 
Q 53.21875 48.921875 51.53125 44.890625 
Q 49.859375 40.875 45.40625 35.40625 
Q 44.1875 33.984375 37.640625 27.21875 
Q 31.109375 20.453125 19.1875 8.296875 
z
" id="DejaVuSans-32"/>
       <path d="M 70.125 53.71875 
L 47.796875 31.296875 
L 70.125 8.984375 
L 64.3125 3.078125 
L 41.890625 25.484375 
L 19.484375 3.078125 
L 13.71875 8.984375 
L 35.984375 31.296875 
L 13.71875 53.71875 
L 19.484375 59.625 
L 41.890625 37.203125 
L 64.3125 59.625 
z
" id="DejaVuSans-d7"/>
       <path d="M 37.796875 64.3125 
L 12.890625 25.390625 
L 37.796875 25.390625 
z
M 35.203125 72.90625 
L 47.609375 72.90625 
L 47.609375 25.390625 
L 58.015625 25.390625 
L 58.015625 17.1875 
L 47.609375 17.1875 
L 47.609375 0 
L 37.796875 0 
L 37.796875 17.1875 
L 4.890625 17.1875 
L 4.890625 26.703125 
z
" id="DejaVuSans-34"/>
      </defs>
      <g style="fill:#ffffff;" transform="translate(10.1 280.243344)scale(0.1 -0.1)">
       <use transform="translate(0 0.684375)" xlink:href="#DejaVuSans-32"/>
       <use transform="translate(83.105469 0.684375)" xlink:href="#DejaVuSans-d7"/>
       <use transform="translate(186.376953 0.684375)" xlink:href="#DejaVuSans-31"/>
       <use transform="translate(250 0.684375)" xlink:href="#DejaVuSans-30"/>
       <use transform="translate(314.580078 38.965625)scale(0.7)" xlink:href="#DejaVuSans-2212"/>
       <use transform="translate(373.232422 38.965625)scale(0.7)" xlink:href="#DejaVuSans-34"/>
      </g>
     </g>
    </g>
    <g id="ytick_3">
     <g id="line2d_12">
      <g>
       <use style="fill:#ffffff;stroke:#ffffff;stroke-width:0.6;" x="57.6" xlink:href="#m3bfcd201ac" y="226.040365"/>
      </g>
     </g>
     <g id="text_13">
      <!-- $\mathdefault{3\times10^{-4}}$ -->
      <g style="fill:#ffffff;" transform="translate(10.1 229.839584)scale(0.1 -0.1)">
       <use transform="translate(0 0.684375)" xlink:href="#DejaVuSans-33"/>
       <use transform="translate(83.105469 0.684375)" xlink:href="#DejaVuSans-d7"/>
       <use transform="translate(186.376953 0.684375)" xlink:href="#DejaVuSans-31"/>
       <use transform="translate(250 0.684375)" xlink:href="#DejaVuSans-30"/>
       <use transform="translate(314.580078 38.965625)scale(0.7)" xlink:href="#DejaVuSans-2212"/>
       <use transform="translate(373.232422 38.965625)scale(0.7)" xlink:href="#DejaVuSans-34"/>
      </g>
     </g>
    </g>
    <g id="ytick_4">
     <g id="line2d_13">
      <g>
       <use style="fill:#ffffff;stroke:#ffffff;stroke-width:0.6;" x="57.6" xlink:href="#m3bfcd201ac" y="190.278329"/>
      </g>
     </g>
     <g id="text_14">
      <!-- $\mathdefault{4\times10^{-4}}$ -->
      <g style="fill:#ffffff;" transform="translate(10.1 194.077548)scale(0.1 -0.1)">
       <use transform="translate(0 0.684375)" xlink:href="#DejaVuSans-34"/>
       <use transform="translate(83.105469 0.684375)" xlink:href="#DejaVuSans-d7"/>
       <use transform="translate(186.376953 0.684375)" xlink:href="#DejaVuSans-31"/>
       <use transform="translate(250 0.684375)" xlink:href="#DejaVuSans-30"/>
       <use transform="translate(314.580078 38.965625)scale(0.7)" xlink:href="#DejaVuSans-2212"/>
       <use transform="translate(373.232422 38.965625)scale(0.7)" xlink:href="#DejaVuSans-34"/>
      </g>
     </g>
    </g>
    <g id="ytick_5">
     <g id="line2d_14">
      <g>
       <use style="fill:#ffffff;stroke:#ffffff;stroke-width:0.6;" x="57.6" xlink:href="#m3bfcd201ac" y="162.539138"/>
      </g>
     </g>
    </g>
    <g id="ytick_6">
     <g id="line2d_15">
      <g>
       <use style="fill:#ffffff;stroke:#ffffff;stroke-width:0.6;" x="57.6" xlink:href="#m3bfcd201ac" y="139.874569"/>
      </g>
     </g>
     <g id="text_15">
      <!-- $\mathdefault{6\times10^{-4}}$ -->
      <g style="fill:#ffffff;" transform="translate(10.1 143.673788)scale(0.1 -0.1)">
       <use transform="translate(0 0.684375)" xlink:href="#DejaVuSans-36"/>
       <use transform="translate(83.105469 0.684375)" xlink:href="#DejaVuSans-d7"/>
       <use transform="translate(186.376953 0.684375)" xlink:href="#DejaVuSans-31"/>
       <use transform="translate(250 0.684375)" xlink:href="#DejaVuSans-30"/>
       <use transform="translate(314.580078 38.965625)scale(0.7)" xlink:href="#DejaVuSans-2212"/>
       <use transform="translate(373.232422 38.965625)scale(0.7)" xlink:href="#DejaVuSans-34"/>
      </g>
     </g>
    </g>
    <g id="ytick_7">
     <g id="line2d_16">
      <g>
       <use style="fill:#ffffff;stroke:#ffffff;stroke-width:0.6;" x="57.6" xlink:href="#m3bfcd201ac" y="120.711949"/>
      </g>
     </g>
    </g>
    <g id="ytick_8">
     <g id="line2d_17">
      <g>
       <use style="fill:#ffffff;stroke:#ffffff;stroke-width:0.6;" x="57.6" xlink:href="#m3bfcd201ac" y="104.112533"/>
      </g>
     </g>
    </g>
    <g id="ytick_9">
     <g id="line2d_18">
      <g>
       <use style="fill:#ffffff;stroke:#ffffff;stroke-width:0.6;" x="57.6" xlink:href="#m3bfcd201ac" y="89.47081"/>
      </g>
     </g>
    </g>
    <g id="text_16">
     <!-- Relative error -->
     <defs>
      <path d="M 34.28125 27.484375 
Q 23.390625 27.484375 19.1875 25 
Q 14.984375 22.515625 14.984375 16.5 
Q 14.984375 11.71875 18.140625 8.90625 
Q 21.296875 6.109375 26.703125 6.109375 
Q 34.1875 6.109375 38.703125 11.40625 
Q 43.21875 16.703125 43.21875 25.484375 
L 43.21875 27.484375 
z
M 52.203125 31.203125 
L 52.203125 0 
L 43.21875 0 
L 43.21875 8.296875 
Q 40.140625 3.328125 35.546875 0.953125 
Q 30.953125 -1.421875 24.3125 -1.421875 
Q 15.921875 -1.421875 10.953125 3.296875 
Q 6 8.015625 6 15.921875 
Q 6 25.140625 12.171875 29.828125 
Q 18.359375 34.515625 30.609375 34.515625 
L 43.21875 34.515625 
L 43.21875 35.40625 
Q 43.21875 41.609375 39.140625 45 
Q 35.0625 48.390625 27.6875 48.390625 
Q 23 48.390625 18.546875 47.265625 
Q 14.109375 46.140625 10.015625 43.890625 
L 10.015625 52.203125 
Q 14.9375 54.109375 19.578125 55.046875 
Q 24.21875 56 28.609375 56 
Q 40.484375 56 46.34375 49.84375 
Q 52.203125 43.703125 52.203125 31.203125 
z
" id="DejaVuSans-61"/>
      <path d="M 2.984375 54.6875 
L 12.5 54.6875 
L 29.59375 8.796875 
L 46.6875 54.6875 
L 56.203125 54.6875 
L 35.6875 0 
L 23.484375 0 
z
" id="DejaVuSans-76"/>
      <path id="DejaVuSans-20"/>
      <path d="M 41.109375 46.296875 
Q 39.59375 47.171875 37.8125 47.578125 
Q 36.03125 48 33.890625 48 
Q 26.265625 48 22.1875 43.046875 
Q 18.109375 38.09375 18.109375 28.8125 
L 18.109375 0 
L 9.078125 0 
L 9.078125 54.6875 
L 18.109375 54.6875 
L 18.109375 46.1875 
Q 20.953125 51.171875 25.484375 53.578125 
Q 30.03125 56 36.53125 56 
Q 37.453125 56 38.578125 55.875 
Q 39.703125 55.765625 41.0625 55.515625 
z
" id="DejaVuSans-72"/>
     </defs>
     <g style="fill:#ffffff;" transform="translate(4.020312 208.803)rotate(-90)scale(0.1 -0.1)">
      <use xlink:href="#DejaVuSans-52"/>
      <use x="69.419922" xlink:href="#DejaVuSans-65"/>
      <use x="130.943359" xlink:href="#DejaVuSans-6c"/>
      <use x="158.726562" xlink:href="#DejaVuSans-61"/>
      <use x="220.005859" xlink:href="#DejaVuSans-74"/>
      <use x="259.214844" xlink:href="#DejaVuSans-69"/>
      <use x="286.998047" xlink:href="#DejaVuSans-76"/>
      <use x="346.177734" xlink:href="#DejaVuSans-65"/>
      <use x="407.701172" xlink:href="#DejaVuSans-20"/>
      <use x="439.488281" xlink:href="#DejaVuSans-65"/>
      <use x="501.011719" xlink:href="#DejaVuSans-72"/>
      <use x="542.109375" xlink:href="#DejaVuSans-72"/>
      <use x="583.191406" xlink:href="#DejaVuSans-6f"/>
      <use x="644.373047" xlink:href="#DejaVuSans-72"/>
     </g>
    </g>
   </g>
   <g id="line2d_19">
    <path clip-path="url(#p45325bdb45)" d="M 73.832727 54.117367 
L 74.644364 53.568 
L 75.456 54.629851 
L 76.267636 55.061407 
L 77.079273 55.649325 
L 77.890909 56.383571 
L 78.702545 59.600121 
L 79.514182 59.29248 
L 80.325818 59.641303 
L 81.137455 58.374847 
L 81.949091 60.020645 
L 82.760727 53.743983 
L 83.572364 112.650398 
L 84.384 57.897827 
L 85.195636 64.649201 
L 86.818909 64.101609 
L 87.630545 66.608618 
L 88.442182 66.618911 
L 89.253818 65.213869 
L 90.065455 66.582488 
L 90.877091 68.379077 
L 91.688727 68.863615 
L 92.500364 70.078879 
L 93.312 72.400245 
L 94.123636 73.294544 
L 94.935273 73.775055 
L 95.746909 74.598345 
L 96.558545 74.409354 
L 97.370182 73.943055 
L 98.181818 74.810575 
L 98.993455 74.927972 
L 101.428364 78.273702 
L 102.24 80.243877 
L 103.051636 80.522605 
L 103.863273 80.601296 
L 104.674909 81.053373 
L 105.486545 81.290715 
L 107.109818 83.68109 
L 107.921455 83.405888 
L 108.733091 84.849586 
L 109.544727 85.15528 
L 110.356364 86.206285 
L 111.168 89.184599 
L 111.979636 89.163533 
L 112.791273 88.047073 
L 113.602909 88.57279 
L 114.414545 87.880981 
L 115.226182 92.030806 
L 116.037818 90.929689 
L 116.849455 93.626895 
L 117.661091 92.639728 
L 118.472727 92.573627 
L 119.284364 95.151673 
L 120.096 95.315997 
L 120.907636 96.889668 
L 122.530909 98.585956 
L 123.342545 97.399643 
L 124.965818 99.08428 
L 125.777455 100.925335 
L 126.589091 100.654185 
L 127.400727 100.82341 
L 128.212364 104.099308 
L 129.024 103.86072 
L 129.835636 103.454159 
L 130.647273 106.165969 
L 131.458909 106.119624 
L 132.270545 106.760911 
L 133.082182 107.610033 
L 133.893818 107.130632 
L 135.517091 109.496127 
L 137.140364 111.239885 
L 137.952 112.855167 
L 138.763636 110.527639 
L 139.575273 112.750487 
L 142.010182 117.908953 
L 142.821818 115.919333 
L 143.633455 116.404679 
L 144.445091 114.131638 
L 145.256727 115.818814 
L 146.068364 122.687842 
L 146.88 124.686178 
L 148.503273 124.235097 
L 149.314909 118.342792 
L 150.126545 120.905817 
L 151.749818 124.360894 
L 152.561455 128.06107 
L 153.373091 127.591699 
L 154.184727 125.710901 
L 154.996364 126.670798 
L 155.808 128.662395 
L 156.619636 134.67869 
L 157.431273 133.700334 
L 158.242909 131.261428 
L 159.866182 131.042662 
L 160.677818 133.217519 
L 161.489455 137.142113 
L 162.301091 136.495274 
L 163.112727 135.423174 
L 163.924364 135.588243 
L 164.736 136.57593 
L 165.547636 139.577327 
L 166.359273 144.891121 
L 167.170909 144.370052 
L 167.982545 143.018066 
L 168.794182 141.935704 
L 169.605818 140.611102 
L 170.417455 143.081868 
L 171.229091 143.857468 
L 172.040727 146.364644 
L 172.852364 148.200771 
L 173.664 147.726062 
L 174.475636 150.738156 
L 175.287273 151.619686 
L 176.098909 154.116602 
L 176.910545 150.699755 
L 177.722182 148.398464 
L 178.533818 150.263738 
L 179.345455 152.719336 
L 180.968727 159.484411 
L 181.780364 159.529393 
L 182.592 158.405826 
L 183.403636 161.214451 
L 184.215273 159.374191 
L 185.026909 157.076323 
L 185.838545 160.789592 
L 186.650182 159.358904 
L 187.461818 163.743506 
L 188.273455 163.498385 
L 189.896727 170.833405 
L 190.708364 167.837957 
L 191.52 168.353537 
L 193.143273 173.41195 
L 193.954909 170.392863 
L 194.766545 168.056471 
L 195.578182 167.258892 
L 196.389818 168.818286 
L 197.201455 174.426229 
L 198.013091 178.827405 
L 198.824727 180.730672 
L 199.636364 181.570026 
L 200.448 180.244004 
L 202.071273 174.458338 
L 202.882909 183.930759 
L 203.694545 183.767379 
L 204.506182 178.940889 
L 205.317818 179.207664 
L 206.129455 179.082971 
L 206.941091 194.649893 
L 207.752727 196.673593 
L 208.564364 192.602466 
L 209.376 190.751573 
L 210.187636 184.165274 
L 210.999273 185.479921 
L 211.810909 184.181639 
L 212.622545 187.307675 
L 213.434182 194.830287 
L 214.245818 199.958422 
L 215.057455 198.874645 
L 215.869091 200.720498 
L 216.680727 196.60321 
L 217.492364 191.806996 
L 218.304 198.092585 
L 219.115636 200.100218 
L 219.927273 197.956787 
L 220.738909 204.432814 
L 221.550545 201.051479 
L 222.362182 200.621966 
L 223.173818 202.351892 
L 223.985455 206.878857 
L 224.797091 213.281842 
L 227.232 204.403187 
L 228.043636 205.314855 
L 228.855273 209.282533 
L 229.666909 212.670181 
L 230.478545 206.982657 
L 231.290182 209.620786 
L 232.101818 217.466068 
L 232.913455 220.628167 
L 234.536727 218.270171 
L 235.348364 220.985944 
L 236.971636 207.116309 
L 237.783273 212.517292 
L 238.594909 223.116448 
L 239.406545 225.01274 
L 240.218182 227.990884 
L 241.029818 224.158368 
L 241.841455 232.369926 
L 242.653091 234.188237 
L 243.464727 237.836261 
L 244.276364 223.228245 
L 245.899636 204.561074 
L 246.711273 203.111269 
L 247.522909 215.138158 
L 248.334545 265.974109 
L 248.335317 346.6 
M 249.957069 346.6 
L 249.957818 268.315785 
L 250.769455 222.58731 
L 251.581091 208.949168 
L 252.392727 206.287125 
L 253.204364 221.705494 
L 254.016 234.225387 
L 254.827636 249.351922 
L 255.639273 252.26901 
L 256.450909 241.738109 
L 257.262545 239.477319 
L 258.074182 244.675677 
L 258.885818 246.303536 
L 259.697455 241.749364 
L 260.509091 240.938834 
L 261.320727 239.824433 
L 262.132364 241.110509 
L 262.944 246.809775 
L 263.755636 245.766495 
L 264.567273 249.120684 
L 265.378909 249.217488 
L 266.190545 252.253795 
L 267.002182 247.522905 
L 267.813818 245.212248 
L 268.625455 250.827975 
L 269.437091 251.090797 
L 270.248727 248.088721 
L 271.060364 249.99609 
L 272.683636 256.107505 
L 273.495273 256.210835 
L 274.306909 258.095466 
L 275.118545 256.118156 
L 275.930182 256.697906 
L 276.741818 255.733973 
L 277.553455 259.75949 
L 278.365091 259.262085 
L 279.176727 256.088507 
L 279.988364 260.476995 
L 280.8 254.812965 
L 281.611636 259.629085 
L 282.423273 262.569041 
L 283.234909 262.946419 
L 284.046545 268.046014 
L 284.858182 265.705925 
L 286.481455 258.180371 
L 287.293091 259.073807 
L 288.104727 263.502019 
L 288.916364 264.26381 
L 289.728 269.63772 
L 290.539636 271.387897 
L 291.351273 271.04814 
L 292.162909 267.995517 
L 292.974545 267.109174 
L 293.786182 267.311276 
L 295.409455 270.542032 
L 296.221091 265.576393 
L 297.032727 265.486059 
L 298.656 276.303776 
L 299.467636 274.668429 
L 300.279273 274.440054 
L 301.090909 274.746163 
L 301.902545 271.113366 
L 302.714182 269.57563 
L 303.525818 271.10361 
L 304.337455 275.388341 
L 305.149091 276.602406 
L 305.960727 273.448386 
L 306.772364 274.3457 
L 308.395636 277.973715 
L 309.207273 277.665455 
L 310.018909 278.257076 
L 310.830545 278.575563 
L 311.642182 274.799344 
L 312.453818 276.290884 
L 313.265455 274.916095 
L 314.888727 280.337097 
L 315.700364 280.378601 
L 316.512 280.930884 
L 317.323636 281.154606 
L 318.135273 280.544476 
L 318.946909 277.022002 
L 319.758545 276.558036 
L 320.570182 278.78986 
L 322.193455 285.307048 
L 323.005091 283.087949 
L 323.816727 279.678412 
L 324.628364 278.050342 
L 325.44 280.046189 
L 326.251636 283.231778 
L 327.063273 285.020089 
L 327.874909 285.207529 
L 328.686545 280.470324 
L 329.498182 280.120811 
L 330.309818 280.888199 
L 331.121455 284.152172 
L 331.933091 285.127365 
L 332.744727 285.013396 
L 333.556364 284.426706 
L 334.368 283.226937 
L 335.179636 283.747927 
L 335.991273 285.22803 
L 336.802909 284.553777 
L 337.614545 285.349332 
L 338.426182 284.101925 
L 339.237818 283.089223 
L 340.049455 283.126806 
L 340.861091 286.18426 
L 341.672727 288.438704 
L 342.484364 285.391809 
L 343.296 283.654348 
L 344.107636 284.945581 
L 344.919273 287.442769 
L 345.730909 287.903796 
L 346.542545 287.567579 
L 347.354182 286.548356 
L 348.165818 285.74487 
L 348.977455 285.414261 
L 349.789091 284.561682 
L 350.600727 285.342144 
L 351.412364 288.507101 
L 353.847273 288.706778 
L 354.658909 289.131569 
L 355.470545 288.413813 
L 357.093818 285.663855 
L 357.905455 284.817911 
L 358.717091 285.021785 
L 359.528727 287.083161 
L 360.340364 291.827231 
L 361.152 292.599268 
L 361.963636 288.651476 
L 362.775273 288.254068 
L 363.586909 289.909711 
L 364.398545 288.548043 
L 365.210182 284.603246 
L 366.021818 286.716307 
L 366.833455 290.189726 
L 367.645091 289.149651 
L 368.456727 288.762867 
L 369.268364 290.387675 
L 370.08 292.870901 
L 370.891636 291.69358 
L 371.703273 289.090946 
L 372.514909 287.945345 
L 373.326545 284.830407 
L 374.138182 285.81079 
L 374.949818 289.547 
L 375.761455 292.584627 
L 376.573091 292.265148 
L 377.384727 293.478257 
L 378.196364 290.831759 
L 379.008 289.028513 
L 379.819636 286.713944 
L 380.631273 288.275811 
L 381.442909 290.223352 
L 382.254545 290.944422 
L 383.066182 292.347103 
L 383.877818 291.606361 
L 384.689455 289.77853 
L 385.501091 288.91416 
L 386.312727 291.880895 
L 387.124364 292.558983 
L 387.936 291.592839 
L 388.747636 292.246104 
L 389.559273 292.443468 
L 391.182545 289.384687 
L 391.994182 288.457262 
L 392.805818 290.446561 
L 393.617455 291.861937 
L 394.429091 295.488 
L 395.240727 295.269538 
L 396.052364 294.341035 
L 396.864 293.13957 
L 397.675636 290.110914 
L 398.487273 288.248439 
L 398.487273 288.248439 
" style="fill:none;stroke:#ffffff;stroke-linecap:square;stroke-width:1.5;"/>
    <defs>
     <path d="M 0 1.5 
C 0.397805 1.5 0.77937 1.341951 1.06066 1.06066 
C 1.341951 0.77937 1.5 0.397805 1.5 0 
C 1.5 -0.397805 1.341951 -0.77937 1.06066 -1.06066 
C 0.77937 -1.341951 0.397805 -1.5 0 -1.5 
C -0.397805 -1.5 -0.77937 -1.341951 -1.06066 -1.06066 
C -1.341951 -0.77937 -1.5 -0.397805 -1.5 0 
C -1.5 0.397805 -1.341951 0.77937 -1.06066 1.06066 
C -0.77937 1.341951 -0.397805 1.5 0 1.5 
z
" id="m87ff19947e" style="stroke:#ffffff;"/>
    </defs>
    <g clip-path="url(#p45325bdb45)">
     <use style="fill:#ffffff;stroke:#ffffff;" x="73.832727" xlink:href="#m87ff19947e" y="54.117367"/>
     <use style="fill:#ffffff;stroke:#ffffff;" x="74.644364" xlink:href="#m87ff19947e" y="53.568"/>
     <use style="fill:#ffffff;stroke:#ffffff;" x="75.456" xlink:href="#m87ff19947e" y="54.629851"/>
     <use style="fill:#ffffff;stroke:#ffffff;" x="76.267636" xlink:href="#m87ff19947e" y="55.061407"/>
     <use style="fill:#ffffff;stroke:#ffffff;" x="77.079273" xlink:href="#m87ff19947e" y="55.649325"/>
     <use style="fill:#ffffff;stroke:#ffffff;" x="77.890909" xlink:href="#m87ff19947e" y="56.383571"/>
     <use style="fill:#ffffff;stroke:#ffffff;" x="78.702545" xlink:href="#m87ff19947e" y="59.600121"/>
     <use style="fill:#ffffff;stroke:#ffffff;" x="79.514182" xlink:href="#m87ff19947e" y="59.29248"/>
     <use style="fill:#ffffff;stroke:#ffffff;" x="80.325818" xlink:href="#m87ff19947e" y="59.641303"/>
     <use style="fill:#ffffff;stroke:#ffffff;" x="81.137455" xlink:href="#m87ff19947e" y="58.374847"/>
     <use style="fill:#ffffff;stroke:#ffffff;" x="81.949091" xlink:href="#m87ff19947e" y="60.020645"/>
     <use style="fill:#ffffff;stroke:#ffffff;" x="82.760727" xlink:href="#m87ff19947e" y="53.743983"/>
     <use style="fill:#ffffff;stroke:#ffffff;" x="83.572364" xlink:href="#m87ff19947e" y="112.650398"/>
     <use style="fill:#ffffff;stroke:#ffffff;" x="84.384" xlink:href="#m87ff19947e" y="57.897827"/>
     <use style="fill:#ffffff;stroke:#ffffff;" x="85.195636" xlink:href="#m87ff19947e" y="64.649201"/>
     <use style="fill:#ffffff;stroke:#ffffff;" x="86.007273" xlink:href="#m87ff19947e" y="64.342799"/>
     <use style="fill:#ffffff;stroke:#ffffff;" x="86.818909" xlink:href="#m87ff19947e" y="64.101609"/>
     <use style="fill:#ffffff;stroke:#ffffff;" x="87.630545" xlink:href="#m87ff19947e" y="66.608618"/>
     <use style="fill:#ffffff;stroke:#ffffff;" x="88.442182" xlink:href="#m87ff19947e" y="66.618911"/>
     <use style="fill:#ffffff;stroke:#ffffff;" x="89.253818" xlink:href="#m87ff19947e" y="65.213869"/>
     <use style="fill:#ffffff;stroke:#ffffff;" x="90.065455" xlink:href="#m87ff19947e" y="66.582488"/>
     <use style="fill:#ffffff;stroke:#ffffff;" x="90.877091" xlink:href="#m87ff19947e" y="68.379077"/>
     <use style="fill:#ffffff;stroke:#ffffff;" x="91.688727" xlink:href="#m87ff19947e" y="68.863615"/>
     <use style="fill:#ffffff;stroke:#ffffff;" x="92.500364" xlink:href="#m87ff19947e" y="70.078879"/>
     <use style="fill:#ffffff;stroke:#ffffff;" x="93.312" xlink:href="#m87ff19947e" y="72.400245"/>
     <use style="fill:#ffffff;stroke:#ffffff;" x="94.123636" xlink:href="#m87ff19947e" y="73.294544"/>
     <use style="fill:#ffffff;stroke:#ffffff;" x="94.935273" xlink:href="#m87ff19947e" y="73.775055"/>
     <use style="fill:#ffffff;stroke:#ffffff;" x="95.746909" xlink:href="#m87ff19947e" y="74.598345"/>
     <use style="fill:#ffffff;stroke:#ffffff;" x="96.558545" xlink:href="#m87ff19947e" y="74.409354"/>
     <use style="fill:#ffffff;stroke:#ffffff;" x="97.370182" xlink:href="#m87ff19947e" y="73.943055"/>
     <use style="fill:#ffffff;stroke:#ffffff;" x="98.181818" xlink:href="#m87ff19947e" y="74.810575"/>
     <use style="fill:#ffffff;stroke:#ffffff;" x="98.993455" xlink:href="#m87ff19947e" y="74.927972"/>
     <use style="fill:#ffffff;stroke:#ffffff;" x="99.805091" xlink:href="#m87ff19947e" y="76.071117"/>
     <use style="fill:#ffffff;stroke:#ffffff;" x="100.616727" xlink:href="#m87ff19947e" y="77.230516"/>
     <use style="fill:#ffffff;stroke:#ffffff;" x="101.428364" xlink:href="#m87ff19947e" y="78.273702"/>
     <use style="fill:#ffffff;stroke:#ffffff;" x="102.24" xlink:href="#m87ff19947e" y="80.243877"/>
     <use style="fill:#ffffff;stroke:#ffffff;" x="103.051636" xlink:href="#m87ff19947e" y="80.522605"/>
     <use style="fill:#ffffff;stroke:#ffffff;" x="103.863273" xlink:href="#m87ff19947e" y="80.601296"/>
     <use style="fill:#ffffff;stroke:#ffffff;" x="104.674909" xlink:href="#m87ff19947e" y="81.053373"/>
     <use style="fill:#ffffff;stroke:#ffffff;" x="105.486545" xlink:href="#m87ff19947e" y="81.290715"/>
     <use style="fill:#ffffff;stroke:#ffffff;" x="106.298182" xlink:href="#m87ff19947e" y="82.515633"/>
     <use style="fill:#ffffff;stroke:#ffffff;" x="107.109818" xlink:href="#m87ff19947e" y="83.68109"/>
     <use style="fill:#ffffff;stroke:#ffffff;" x="107.921455" xlink:href="#m87ff19947e" y="83.405888"/>
     <use style="fill:#ffffff;stroke:#ffffff;" x="108.733091" xlink:href="#m87ff19947e" y="84.849586"/>
     <use style="fill:#ffffff;stroke:#ffffff;" x="109.544727" xlink:href="#m87ff19947e" y="85.15528"/>
     <use style="fill:#ffffff;stroke:#ffffff;" x="110.356364" xlink:href="#m87ff19947e" y="86.206285"/>
     <use style="fill:#ffffff;stroke:#ffffff;" x="111.168" xlink:href="#m87ff19947e" y="89.184599"/>
     <use style="fill:#ffffff;stroke:#ffffff;" x="111.979636" xlink:href="#m87ff19947e" y="89.163533"/>
     <use style="fill:#ffffff;stroke:#ffffff;" x="112.791273" xlink:href="#m87ff19947e" y="88.047073"/>
     <use style="fill:#ffffff;stroke:#ffffff;" x="113.602909" xlink:href="#m87ff19947e" y="88.57279"/>
     <use style="fill:#ffffff;stroke:#ffffff;" x="114.414545" xlink:href="#m87ff19947e" y="87.880981"/>
     <use style="fill:#ffffff;stroke:#ffffff;" x="115.226182" xlink:href="#m87ff19947e" y="92.030806"/>
     <use style="fill:#ffffff;stroke:#ffffff;" x="116.037818" xlink:href="#m87ff19947e" y="90.929689"/>
     <use style="fill:#ffffff;stroke:#ffffff;" x="116.849455" xlink:href="#m87ff19947e" y="93.626895"/>
     <use style="fill:#ffffff;stroke:#ffffff;" x="117.661091" xlink:href="#m87ff19947e" y="92.639728"/>
     <use style="fill:#ffffff;stroke:#ffffff;" x="118.472727" xlink:href="#m87ff19947e" y="92.573627"/>
     <use style="fill:#ffffff;stroke:#ffffff;" x="119.284364" xlink:href="#m87ff19947e" y="95.151673"/>
     <use style="fill:#ffffff;stroke:#ffffff;" x="120.096" xlink:href="#m87ff19947e" y="95.315997"/>
     <use style="fill:#ffffff;stroke:#ffffff;" x="120.907636" xlink:href="#m87ff19947e" y="96.889668"/>
     <use style="fill:#ffffff;stroke:#ffffff;" x="121.719273" xlink:href="#m87ff19947e" y="97.795349"/>
     <use style="fill:#ffffff;stroke:#ffffff;" x="122.530909" xlink:href="#m87ff19947e" y="98.585956"/>
     <use style="fill:#ffffff;stroke:#ffffff;" x="123.342545" xlink:href="#m87ff19947e" y="97.399643"/>
     <use style="fill:#ffffff;stroke:#ffffff;" x="124.154182" xlink:href="#m87ff19947e" y="98.236584"/>
     <use style="fill:#ffffff;stroke:#ffffff;" x="124.965818" xlink:href="#m87ff19947e" y="99.08428"/>
     <use style="fill:#ffffff;stroke:#ffffff;" x="125.777455" xlink:href="#m87ff19947e" y="100.925335"/>
     <use style="fill:#ffffff;stroke:#ffffff;" x="126.589091" xlink:href="#m87ff19947e" y="100.654185"/>
     <use style="fill:#ffffff;stroke:#ffffff;" x="127.400727" xlink:href="#m87ff19947e" y="100.82341"/>
     <use style="fill:#ffffff;stroke:#ffffff;" x="128.212364" xlink:href="#m87ff19947e" y="104.099308"/>
     <use style="fill:#ffffff;stroke:#ffffff;" x="129.024" xlink:href="#m87ff19947e" y="103.86072"/>
     <use style="fill:#ffffff;stroke:#ffffff;" x="129.835636" xlink:href="#m87ff19947e" y="103.454159"/>
     <use style="fill:#ffffff;stroke:#ffffff;" x="130.647273" xlink:href="#m87ff19947e" y="106.165969"/>
     <use style="fill:#ffffff;stroke:#ffffff;" x="131.458909" xlink:href="#m87ff19947e" y="106.119624"/>
     <use style="fill:#ffffff;stroke:#ffffff;" x="132.270545" xlink:href="#m87ff19947e" y="106.760911"/>
     <use style="fill:#ffffff;stroke:#ffffff;" x="133.082182" xlink:href="#m87ff19947e" y="107.610033"/>
     <use style="fill:#ffffff;stroke:#ffffff;" x="133.893818" xlink:href="#m87ff19947e" y="107.130632"/>
     <use style="fill:#ffffff;stroke:#ffffff;" x="134.705455" xlink:href="#m87ff19947e" y="108.348661"/>
     <use style="fill:#ffffff;stroke:#ffffff;" x="135.517091" xlink:href="#m87ff19947e" y="109.496127"/>
     <use style="fill:#ffffff;stroke:#ffffff;" x="136.328727" xlink:href="#m87ff19947e" y="110.423402"/>
     <use style="fill:#ffffff;stroke:#ffffff;" x="137.140364" xlink:href="#m87ff19947e" y="111.239885"/>
     <use style="fill:#ffffff;stroke:#ffffff;" x="137.952" xlink:href="#m87ff19947e" y="112.855167"/>
     <use style="fill:#ffffff;stroke:#ffffff;" x="138.763636" xlink:href="#m87ff19947e" y="110.527639"/>
     <use style="fill:#ffffff;stroke:#ffffff;" x="139.575273" xlink:href="#m87ff19947e" y="112.750487"/>
     <use style="fill:#ffffff;stroke:#ffffff;" x="140.386909" xlink:href="#m87ff19947e" y="114.449884"/>
     <use style="fill:#ffffff;stroke:#ffffff;" x="141.198545" xlink:href="#m87ff19947e" y="116.025642"/>
     <use style="fill:#ffffff;stroke:#ffffff;" x="142.010182" xlink:href="#m87ff19947e" y="117.908953"/>
     <use style="fill:#ffffff;stroke:#ffffff;" x="142.821818" xlink:href="#m87ff19947e" y="115.919333"/>
     <use style="fill:#ffffff;stroke:#ffffff;" x="143.633455" xlink:href="#m87ff19947e" y="116.404679"/>
     <use style="fill:#ffffff;stroke:#ffffff;" x="144.445091" xlink:href="#m87ff19947e" y="114.131638"/>
     <use style="fill:#ffffff;stroke:#ffffff;" x="145.256727" xlink:href="#m87ff19947e" y="115.818814"/>
     <use style="fill:#ffffff;stroke:#ffffff;" x="146.068364" xlink:href="#m87ff19947e" y="122.687842"/>
     <use style="fill:#ffffff;stroke:#ffffff;" x="146.88" xlink:href="#m87ff19947e" y="124.686178"/>
     <use style="fill:#ffffff;stroke:#ffffff;" x="147.691636" xlink:href="#m87ff19947e" y="124.454893"/>
     <use style="fill:#ffffff;stroke:#ffffff;" x="148.503273" xlink:href="#m87ff19947e" y="124.235097"/>
     <use style="fill:#ffffff;stroke:#ffffff;" x="149.314909" xlink:href="#m87ff19947e" y="118.342792"/>
     <use style="fill:#ffffff;stroke:#ffffff;" x="150.126545" xlink:href="#m87ff19947e" y="120.905817"/>
     <use style="fill:#ffffff;stroke:#ffffff;" x="150.938182" xlink:href="#m87ff19947e" y="122.670157"/>
     <use style="fill:#ffffff;stroke:#ffffff;" x="151.749818" xlink:href="#m87ff19947e" y="124.360894"/>
     <use style="fill:#ffffff;stroke:#ffffff;" x="152.561455" xlink:href="#m87ff19947e" y="128.06107"/>
     <use style="fill:#ffffff;stroke:#ffffff;" x="153.373091" xlink:href="#m87ff19947e" y="127.591699"/>
     <use style="fill:#ffffff;stroke:#ffffff;" x="154.184727" xlink:href="#m87ff19947e" y="125.710901"/>
     <use style="fill:#ffffff;stroke:#ffffff;" x="154.996364" xlink:href="#m87ff19947e" y="126.670798"/>
     <use style="fill:#ffffff;stroke:#ffffff;" x="155.808" xlink:href="#m87ff19947e" y="128.662395"/>
     <use style="fill:#ffffff;stroke:#ffffff;" x="156.619636" xlink:href="#m87ff19947e" y="134.67869"/>
     <use style="fill:#ffffff;stroke:#ffffff;" x="157.431273" xlink:href="#m87ff19947e" y="133.700334"/>
     <use style="fill:#ffffff;stroke:#ffffff;" x="158.242909" xlink:href="#m87ff19947e" y="131.261428"/>
     <use style="fill:#ffffff;stroke:#ffffff;" x="159.054545" xlink:href="#m87ff19947e" y="131.176683"/>
     <use style="fill:#ffffff;stroke:#ffffff;" x="159.866182" xlink:href="#m87ff19947e" y="131.042662"/>
     <use style="fill:#ffffff;stroke:#ffffff;" x="160.677818" xlink:href="#m87ff19947e" y="133.217519"/>
     <use style="fill:#ffffff;stroke:#ffffff;" x="161.489455" xlink:href="#m87ff19947e" y="137.142113"/>
     <use style="fill:#ffffff;stroke:#ffffff;" x="162.301091" xlink:href="#m87ff19947e" y="136.495274"/>
     <use style="fill:#ffffff;stroke:#ffffff;" x="163.112727" xlink:href="#m87ff19947e" y="135.423174"/>
     <use style="fill:#ffffff;stroke:#ffffff;" x="163.924364" xlink:href="#m87ff19947e" y="135.588243"/>
     <use style="fill:#ffffff;stroke:#ffffff;" x="164.736" xlink:href="#m87ff19947e" y="136.57593"/>
     <use style="fill:#ffffff;stroke:#ffffff;" x="165.547636" xlink:href="#m87ff19947e" y="139.577327"/>
     <use style="fill:#ffffff;stroke:#ffffff;" x="166.359273" xlink:href="#m87ff19947e" y="144.891121"/>
     <use style="fill:#ffffff;stroke:#ffffff;" x="167.170909" xlink:href="#m87ff19947e" y="144.370052"/>
     <use style="fill:#ffffff;stroke:#ffffff;" x="167.982545" xlink:href="#m87ff19947e" y="143.018066"/>
     <use style="fill:#ffffff;stroke:#ffffff;" x="168.794182" xlink:href="#m87ff19947e" y="141.935704"/>
     <use style="fill:#ffffff;stroke:#ffffff;" x="169.605818" xlink:href="#m87ff19947e" y="140.611102"/>
     <use style="fill:#ffffff;stroke:#ffffff;" x="170.417455" xlink:href="#m87ff19947e" y="143.081868"/>
     <use style="fill:#ffffff;stroke:#ffffff;" x="171.229091" xlink:href="#m87ff19947e" y="143.857468"/>
     <use style="fill:#ffffff;stroke:#ffffff;" x="172.040727" xlink:href="#m87ff19947e" y="146.364644"/>
     <use style="fill:#ffffff;stroke:#ffffff;" x="172.852364" xlink:href="#m87ff19947e" y="148.200771"/>
     <use style="fill:#ffffff;stroke:#ffffff;" x="173.664" xlink:href="#m87ff19947e" y="147.726062"/>
     <use style="fill:#ffffff;stroke:#ffffff;" x="174.475636" xlink:href="#m87ff19947e" y="150.738156"/>
     <use style="fill:#ffffff;stroke:#ffffff;" x="175.287273" xlink:href="#m87ff19947e" y="151.619686"/>
     <use style="fill:#ffffff;stroke:#ffffff;" x="176.098909" xlink:href="#m87ff19947e" y="154.116602"/>
     <use style="fill:#ffffff;stroke:#ffffff;" x="176.910545" xlink:href="#m87ff19947e" y="150.699755"/>
     <use style="fill:#ffffff;stroke:#ffffff;" x="177.722182" xlink:href="#m87ff19947e" y="148.398464"/>
     <use style="fill:#ffffff;stroke:#ffffff;" x="178.533818" xlink:href="#m87ff19947e" y="150.263738"/>
     <use style="fill:#ffffff;stroke:#ffffff;" x="179.345455" xlink:href="#m87ff19947e" y="152.719336"/>
     <use style="fill:#ffffff;stroke:#ffffff;" x="180.157091" xlink:href="#m87ff19947e" y="156.083028"/>
     <use style="fill:#ffffff;stroke:#ffffff;" x="180.968727" xlink:href="#m87ff19947e" y="159.484411"/>
     <use style="fill:#ffffff;stroke:#ffffff;" x="181.780364" xlink:href="#m87ff19947e" y="159.529393"/>
     <use style="fill:#ffffff;stroke:#ffffff;" x="182.592" xlink:href="#m87ff19947e" y="158.405826"/>
     <use style="fill:#ffffff;stroke:#ffffff;" x="183.403636" xlink:href="#m87ff19947e" y="161.214451"/>
     <use style="fill:#ffffff;stroke:#ffffff;" x="184.215273" xlink:href="#m87ff19947e" y="159.374191"/>
     <use style="fill:#ffffff;stroke:#ffffff;" x="185.026909" xlink:href="#m87ff19947e" y="157.076323"/>
     <use style="fill:#ffffff;stroke:#ffffff;" x="185.838545" xlink:href="#m87ff19947e" y="160.789592"/>
     <use style="fill:#ffffff;stroke:#ffffff;" x="186.650182" xlink:href="#m87ff19947e" y="159.358904"/>
     <use style="fill:#ffffff;stroke:#ffffff;" x="187.461818" xlink:href="#m87ff19947e" y="163.743506"/>
     <use style="fill:#ffffff;stroke:#ffffff;" x="188.273455" xlink:href="#m87ff19947e" y="163.498385"/>
     <use style="fill:#ffffff;stroke:#ffffff;" x="189.085091" xlink:href="#m87ff19947e" y="167.371592"/>
     <use style="fill:#ffffff;stroke:#ffffff;" x="189.896727" xlink:href="#m87ff19947e" y="170.833405"/>
     <use style="fill:#ffffff;stroke:#ffffff;" x="190.708364" xlink:href="#m87ff19947e" y="167.837957"/>
     <use style="fill:#ffffff;stroke:#ffffff;" x="191.52" xlink:href="#m87ff19947e" y="168.353537"/>
     <use style="fill:#ffffff;stroke:#ffffff;" x="192.331636" xlink:href="#m87ff19947e" y="170.901416"/>
     <use style="fill:#ffffff;stroke:#ffffff;" x="193.143273" xlink:href="#m87ff19947e" y="173.41195"/>
     <use style="fill:#ffffff;stroke:#ffffff;" x="193.954909" xlink:href="#m87ff19947e" y="170.392863"/>
     <use style="fill:#ffffff;stroke:#ffffff;" x="194.766545" xlink:href="#m87ff19947e" y="168.056471"/>
     <use style="fill:#ffffff;stroke:#ffffff;" x="195.578182" xlink:href="#m87ff19947e" y="167.258892"/>
     <use style="fill:#ffffff;stroke:#ffffff;" x="196.389818" xlink:href="#m87ff19947e" y="168.818286"/>
     <use style="fill:#ffffff;stroke:#ffffff;" x="197.201455" xlink:href="#m87ff19947e" y="174.426229"/>
     <use style="fill:#ffffff;stroke:#ffffff;" x="198.013091" xlink:href="#m87ff19947e" y="178.827405"/>
     <use style="fill:#ffffff;stroke:#ffffff;" x="198.824727" xlink:href="#m87ff19947e" y="180.730672"/>
     <use style="fill:#ffffff;stroke:#ffffff;" x="199.636364" xlink:href="#m87ff19947e" y="181.570026"/>
     <use style="fill:#ffffff;stroke:#ffffff;" x="200.448" xlink:href="#m87ff19947e" y="180.244004"/>
     <use style="fill:#ffffff;stroke:#ffffff;" x="201.259636" xlink:href="#m87ff19947e" y="177.496691"/>
     <use style="fill:#ffffff;stroke:#ffffff;" x="202.071273" xlink:href="#m87ff19947e" y="174.458338"/>
     <use style="fill:#ffffff;stroke:#ffffff;" x="202.882909" xlink:href="#m87ff19947e" y="183.930759"/>
     <use style="fill:#ffffff;stroke:#ffffff;" x="203.694545" xlink:href="#m87ff19947e" y="183.767379"/>
     <use style="fill:#ffffff;stroke:#ffffff;" x="204.506182" xlink:href="#m87ff19947e" y="178.940889"/>
     <use style="fill:#ffffff;stroke:#ffffff;" x="205.317818" xlink:href="#m87ff19947e" y="179.207664"/>
     <use style="fill:#ffffff;stroke:#ffffff;" x="206.129455" xlink:href="#m87ff19947e" y="179.082971"/>
     <use style="fill:#ffffff;stroke:#ffffff;" x="206.941091" xlink:href="#m87ff19947e" y="194.649893"/>
     <use style="fill:#ffffff;stroke:#ffffff;" x="207.752727" xlink:href="#m87ff19947e" y="196.673593"/>
     <use style="fill:#ffffff;stroke:#ffffff;" x="208.564364" xlink:href="#m87ff19947e" y="192.602466"/>
     <use style="fill:#ffffff;stroke:#ffffff;" x="209.376" xlink:href="#m87ff19947e" y="190.751573"/>
     <use style="fill:#ffffff;stroke:#ffffff;" x="210.187636" xlink:href="#m87ff19947e" y="184.165274"/>
     <use style="fill:#ffffff;stroke:#ffffff;" x="210.999273" xlink:href="#m87ff19947e" y="185.479921"/>
     <use style="fill:#ffffff;stroke:#ffffff;" x="211.810909" xlink:href="#m87ff19947e" y="184.181639"/>
     <use style="fill:#ffffff;stroke:#ffffff;" x="212.622545" xlink:href="#m87ff19947e" y="187.307675"/>
     <use style="fill:#ffffff;stroke:#ffffff;" x="213.434182" xlink:href="#m87ff19947e" y="194.830287"/>
     <use style="fill:#ffffff;stroke:#ffffff;" x="214.245818" xlink:href="#m87ff19947e" y="199.958422"/>
     <use style="fill:#ffffff;stroke:#ffffff;" x="215.057455" xlink:href="#m87ff19947e" y="198.874645"/>
     <use style="fill:#ffffff;stroke:#ffffff;" x="215.869091" xlink:href="#m87ff19947e" y="200.720498"/>
     <use style="fill:#ffffff;stroke:#ffffff;" x="216.680727" xlink:href="#m87ff19947e" y="196.60321"/>
     <use style="fill:#ffffff;stroke:#ffffff;" x="217.492364" xlink:href="#m87ff19947e" y="191.806996"/>
     <use style="fill:#ffffff;stroke:#ffffff;" x="218.304" xlink:href="#m87ff19947e" y="198.092585"/>
     <use style="fill:#ffffff;stroke:#ffffff;" x="219.115636" xlink:href="#m87ff19947e" y="200.100218"/>
     <use style="fill:#ffffff;stroke:#ffffff;" x="219.927273" xlink:href="#m87ff19947e" y="197.956787"/>
     <use style="fill:#ffffff;stroke:#ffffff;" x="220.738909" xlink:href="#m87ff19947e" y="204.432814"/>
     <use style="fill:#ffffff;stroke:#ffffff;" x="221.550545" xlink:href="#m87ff19947e" y="201.051479"/>
     <use style="fill:#ffffff;stroke:#ffffff;" x="222.362182" xlink:href="#m87ff19947e" y="200.621966"/>
     <use style="fill:#ffffff;stroke:#ffffff;" x="223.173818" xlink:href="#m87ff19947e" y="202.351892"/>
     <use style="fill:#ffffff;stroke:#ffffff;" x="223.985455" xlink:href="#m87ff19947e" y="206.878857"/>
     <use style="fill:#ffffff;stroke:#ffffff;" x="224.797091" xlink:href="#m87ff19947e" y="213.281842"/>
     <use style="fill:#ffffff;stroke:#ffffff;" x="225.608727" xlink:href="#m87ff19947e" y="210.349076"/>
     <use style="fill:#ffffff;stroke:#ffffff;" x="226.420364" xlink:href="#m87ff19947e" y="207.313104"/>
     <use style="fill:#ffffff;stroke:#ffffff;" x="227.232" xlink:href="#m87ff19947e" y="204.403187"/>
     <use style="fill:#ffffff;stroke:#ffffff;" x="228.043636" xlink:href="#m87ff19947e" y="205.314855"/>
     <use style="fill:#ffffff;stroke:#ffffff;" x="228.855273" xlink:href="#m87ff19947e" y="209.282533"/>
     <use style="fill:#ffffff;stroke:#ffffff;" x="229.666909" xlink:href="#m87ff19947e" y="212.670181"/>
     <use style="fill:#ffffff;stroke:#ffffff;" x="230.478545" xlink:href="#m87ff19947e" y="206.982657"/>
     <use style="fill:#ffffff;stroke:#ffffff;" x="231.290182" xlink:href="#m87ff19947e" y="209.620786"/>
     <use style="fill:#ffffff;stroke:#ffffff;" x="232.101818" xlink:href="#m87ff19947e" y="217.466068"/>
     <use style="fill:#ffffff;stroke:#ffffff;" x="232.913455" xlink:href="#m87ff19947e" y="220.628167"/>
     <use style="fill:#ffffff;stroke:#ffffff;" x="233.725091" xlink:href="#m87ff19947e" y="219.537503"/>
     <use style="fill:#ffffff;stroke:#ffffff;" x="234.536727" xlink:href="#m87ff19947e" y="218.270171"/>
     <use style="fill:#ffffff;stroke:#ffffff;" x="235.348364" xlink:href="#m87ff19947e" y="220.985944"/>
     <use style="fill:#ffffff;stroke:#ffffff;" x="236.16" xlink:href="#m87ff19947e" y="213.875502"/>
     <use style="fill:#ffffff;stroke:#ffffff;" x="236.971636" xlink:href="#m87ff19947e" y="207.116309"/>
     <use style="fill:#ffffff;stroke:#ffffff;" x="237.783273" xlink:href="#m87ff19947e" y="212.517292"/>
     <use style="fill:#ffffff;stroke:#ffffff;" x="238.594909" xlink:href="#m87ff19947e" y="223.116448"/>
     <use style="fill:#ffffff;stroke:#ffffff;" x="239.406545" xlink:href="#m87ff19947e" y="225.01274"/>
     <use style="fill:#ffffff;stroke:#ffffff;" x="240.218182" xlink:href="#m87ff19947e" y="227.990884"/>
     <use style="fill:#ffffff;stroke:#ffffff;" x="241.029818" xlink:href="#m87ff19947e" y="224.158368"/>
     <use style="fill:#ffffff;stroke:#ffffff;" x="241.841455" xlink:href="#m87ff19947e" y="232.369926"/>
     <use style="fill:#ffffff;stroke:#ffffff;" x="242.653091" xlink:href="#m87ff19947e" y="234.188237"/>
     <use style="fill:#ffffff;stroke:#ffffff;" x="243.464727" xlink:href="#m87ff19947e" y="237.836261"/>
     <use style="fill:#ffffff;stroke:#ffffff;" x="244.276364" xlink:href="#m87ff19947e" y="223.228245"/>
     <use style="fill:#ffffff;stroke:#ffffff;" x="245.088" xlink:href="#m87ff19947e" y="213.351234"/>
     <use style="fill:#ffffff;stroke:#ffffff;" x="245.899636" xlink:href="#m87ff19947e" y="204.561074"/>
     <use style="fill:#ffffff;stroke:#ffffff;" x="246.711273" xlink:href="#m87ff19947e" y="203.111269"/>
     <use style="fill:#ffffff;stroke:#ffffff;" x="247.522909" xlink:href="#m87ff19947e" y="215.138158"/>
     <use style="fill:#ffffff;stroke:#ffffff;" x="248.334545" xlink:href="#m87ff19947e" y="265.974109"/>
     <use style="fill:#ffffff;stroke:#ffffff;" x="248.570108" xlink:href="#m87ff19947e" y="24884.2"/>
     <use style="fill:#ffffff;stroke:#ffffff;" x="249.722271" xlink:href="#m87ff19947e" y="24884.2"/>
     <use style="fill:#ffffff;stroke:#ffffff;" x="249.957818" xlink:href="#m87ff19947e" y="268.315785"/>
     <use style="fill:#ffffff;stroke:#ffffff;" x="250.769455" xlink:href="#m87ff19947e" y="222.58731"/>
     <use style="fill:#ffffff;stroke:#ffffff;" x="251.581091" xlink:href="#m87ff19947e" y="208.949168"/>
     <use style="fill:#ffffff;stroke:#ffffff;" x="252.392727" xlink:href="#m87ff19947e" y="206.287125"/>
     <use style="fill:#ffffff;stroke:#ffffff;" x="253.204364" xlink:href="#m87ff19947e" y="221.705494"/>
     <use style="fill:#ffffff;stroke:#ffffff;" x="254.016" xlink:href="#m87ff19947e" y="234.225387"/>
     <use style="fill:#ffffff;stroke:#ffffff;" x="254.827636" xlink:href="#m87ff19947e" y="249.351922"/>
     <use style="fill:#ffffff;stroke:#ffffff;" x="255.639273" xlink:href="#m87ff19947e" y="252.26901"/>
     <use style="fill:#ffffff;stroke:#ffffff;" x="256.450909" xlink:href="#m87ff19947e" y="241.738109"/>
     <use style="fill:#ffffff;stroke:#ffffff;" x="257.262545" xlink:href="#m87ff19947e" y="239.477319"/>
     <use style="fill:#ffffff;stroke:#ffffff;" x="258.074182" xlink:href="#m87ff19947e" y="244.675677"/>
     <use style="fill:#ffffff;stroke:#ffffff;" x="258.885818" xlink:href="#m87ff19947e" y="246.303536"/>
     <use style="fill:#ffffff;stroke:#ffffff;" x="259.697455" xlink:href="#m87ff19947e" y="241.749364"/>
     <use style="fill:#ffffff;stroke:#ffffff;" x="260.509091" xlink:href="#m87ff19947e" y="240.938834"/>
     <use style="fill:#ffffff;stroke:#ffffff;" x="261.320727" xlink:href="#m87ff19947e" y="239.824433"/>
     <use style="fill:#ffffff;stroke:#ffffff;" x="262.132364" xlink:href="#m87ff19947e" y="241.110509"/>
     <use style="fill:#ffffff;stroke:#ffffff;" x="262.944" xlink:href="#m87ff19947e" y="246.809775"/>
     <use style="fill:#ffffff;stroke:#ffffff;" x="263.755636" xlink:href="#m87ff19947e" y="245.766495"/>
     <use style="fill:#ffffff;stroke:#ffffff;" x="264.567273" xlink:href="#m87ff19947e" y="249.120684"/>
     <use style="fill:#ffffff;stroke:#ffffff;" x="265.378909" xlink:href="#m87ff19947e" y="249.217488"/>
     <use style="fill:#ffffff;stroke:#ffffff;" x="266.190545" xlink:href="#m87ff19947e" y="252.253795"/>
     <use style="fill:#ffffff;stroke:#ffffff;" x="267.002182" xlink:href="#m87ff19947e" y="247.522905"/>
     <use style="fill:#ffffff;stroke:#ffffff;" x="267.813818" xlink:href="#m87ff19947e" y="245.212248"/>
     <use style="fill:#ffffff;stroke:#ffffff;" x="268.625455" xlink:href="#m87ff19947e" y="250.827975"/>
     <use style="fill:#ffffff;stroke:#ffffff;" x="269.437091" xlink:href="#m87ff19947e" y="251.090797"/>
     <use style="fill:#ffffff;stroke:#ffffff;" x="270.248727" xlink:href="#m87ff19947e" y="248.088721"/>
     <use style="fill:#ffffff;stroke:#ffffff;" x="271.060364" xlink:href="#m87ff19947e" y="249.99609"/>
     <use style="fill:#ffffff;stroke:#ffffff;" x="271.872" xlink:href="#m87ff19947e" y="253.116462"/>
     <use style="fill:#ffffff;stroke:#ffffff;" x="272.683636" xlink:href="#m87ff19947e" y="256.107505"/>
     <use style="fill:#ffffff;stroke:#ffffff;" x="273.495273" xlink:href="#m87ff19947e" y="256.210835"/>
     <use style="fill:#ffffff;stroke:#ffffff;" x="274.306909" xlink:href="#m87ff19947e" y="258.095466"/>
     <use style="fill:#ffffff;stroke:#ffffff;" x="275.118545" xlink:href="#m87ff19947e" y="256.118156"/>
     <use style="fill:#ffffff;stroke:#ffffff;" x="275.930182" xlink:href="#m87ff19947e" y="256.697906"/>
     <use style="fill:#ffffff;stroke:#ffffff;" x="276.741818" xlink:href="#m87ff19947e" y="255.733973"/>
     <use style="fill:#ffffff;stroke:#ffffff;" x="277.553455" xlink:href="#m87ff19947e" y="259.75949"/>
     <use style="fill:#ffffff;stroke:#ffffff;" x="278.365091" xlink:href="#m87ff19947e" y="259.262085"/>
     <use style="fill:#ffffff;stroke:#ffffff;" x="279.176727" xlink:href="#m87ff19947e" y="256.088507"/>
     <use style="fill:#ffffff;stroke:#ffffff;" x="279.988364" xlink:href="#m87ff19947e" y="260.476995"/>
     <use style="fill:#ffffff;stroke:#ffffff;" x="280.8" xlink:href="#m87ff19947e" y="254.812965"/>
     <use style="fill:#ffffff;stroke:#ffffff;" x="281.611636" xlink:href="#m87ff19947e" y="259.629085"/>
     <use style="fill:#ffffff;stroke:#ffffff;" x="282.423273" xlink:href="#m87ff19947e" y="262.569041"/>
     <use style="fill:#ffffff;stroke:#ffffff;" x="283.234909" xlink:href="#m87ff19947e" y="262.946419"/>
     <use style="fill:#ffffff;stroke:#ffffff;" x="284.046545" xlink:href="#m87ff19947e" y="268.046014"/>
     <use style="fill:#ffffff;stroke:#ffffff;" x="284.858182" xlink:href="#m87ff19947e" y="265.705925"/>
     <use style="fill:#ffffff;stroke:#ffffff;" x="285.669818" xlink:href="#m87ff19947e" y="261.986815"/>
     <use style="fill:#ffffff;stroke:#ffffff;" x="286.481455" xlink:href="#m87ff19947e" y="258.180371"/>
     <use style="fill:#ffffff;stroke:#ffffff;" x="287.293091" xlink:href="#m87ff19947e" y="259.073807"/>
     <use style="fill:#ffffff;stroke:#ffffff;" x="288.104727" xlink:href="#m87ff19947e" y="263.502019"/>
     <use style="fill:#ffffff;stroke:#ffffff;" x="288.916364" xlink:href="#m87ff19947e" y="264.26381"/>
     <use style="fill:#ffffff;stroke:#ffffff;" x="289.728" xlink:href="#m87ff19947e" y="269.63772"/>
     <use style="fill:#ffffff;stroke:#ffffff;" x="290.539636" xlink:href="#m87ff19947e" y="271.387897"/>
     <use style="fill:#ffffff;stroke:#ffffff;" x="291.351273" xlink:href="#m87ff19947e" y="271.04814"/>
     <use style="fill:#ffffff;stroke:#ffffff;" x="292.162909" xlink:href="#m87ff19947e" y="267.995517"/>
     <use style="fill:#ffffff;stroke:#ffffff;" x="292.974545" xlink:href="#m87ff19947e" y="267.109174"/>
     <use style="fill:#ffffff;stroke:#ffffff;" x="293.786182" xlink:href="#m87ff19947e" y="267.311276"/>
     <use style="fill:#ffffff;stroke:#ffffff;" x="294.597818" xlink:href="#m87ff19947e" y="268.901335"/>
     <use style="fill:#ffffff;stroke:#ffffff;" x="295.409455" xlink:href="#m87ff19947e" y="270.542032"/>
     <use style="fill:#ffffff;stroke:#ffffff;" x="296.221091" xlink:href="#m87ff19947e" y="265.576393"/>
     <use style="fill:#ffffff;stroke:#ffffff;" x="297.032727" xlink:href="#m87ff19947e" y="265.486059"/>
     <use style="fill:#ffffff;stroke:#ffffff;" x="297.844364" xlink:href="#m87ff19947e" y="270.917668"/>
     <use style="fill:#ffffff;stroke:#ffffff;" x="298.656" xlink:href="#m87ff19947e" y="276.303776"/>
     <use style="fill:#ffffff;stroke:#ffffff;" x="299.467636" xlink:href="#m87ff19947e" y="274.668429"/>
     <use style="fill:#ffffff;stroke:#ffffff;" x="300.279273" xlink:href="#m87ff19947e" y="274.440054"/>
     <use style="fill:#ffffff;stroke:#ffffff;" x="301.090909" xlink:href="#m87ff19947e" y="274.746163"/>
     <use style="fill:#ffffff;stroke:#ffffff;" x="301.902545" xlink:href="#m87ff19947e" y="271.113366"/>
     <use style="fill:#ffffff;stroke:#ffffff;" x="302.714182" xlink:href="#m87ff19947e" y="269.57563"/>
     <use style="fill:#ffffff;stroke:#ffffff;" x="303.525818" xlink:href="#m87ff19947e" y="271.10361"/>
     <use style="fill:#ffffff;stroke:#ffffff;" x="304.337455" xlink:href="#m87ff19947e" y="275.388341"/>
     <use style="fill:#ffffff;stroke:#ffffff;" x="305.149091" xlink:href="#m87ff19947e" y="276.602406"/>
     <use style="fill:#ffffff;stroke:#ffffff;" x="305.960727" xlink:href="#m87ff19947e" y="273.448386"/>
     <use style="fill:#ffffff;stroke:#ffffff;" x="306.772364" xlink:href="#m87ff19947e" y="274.3457"/>
     <use style="fill:#ffffff;stroke:#ffffff;" x="307.584" xlink:href="#m87ff19947e" y="276.13348"/>
     <use style="fill:#ffffff;stroke:#ffffff;" x="308.395636" xlink:href="#m87ff19947e" y="277.973715"/>
     <use style="fill:#ffffff;stroke:#ffffff;" x="309.207273" xlink:href="#m87ff19947e" y="277.665455"/>
     <use style="fill:#ffffff;stroke:#ffffff;" x="310.018909" xlink:href="#m87ff19947e" y="278.257076"/>
     <use style="fill:#ffffff;stroke:#ffffff;" x="310.830545" xlink:href="#m87ff19947e" y="278.575563"/>
     <use style="fill:#ffffff;stroke:#ffffff;" x="311.642182" xlink:href="#m87ff19947e" y="274.799344"/>
     <use style="fill:#ffffff;stroke:#ffffff;" x="312.453818" xlink:href="#m87ff19947e" y="276.290884"/>
     <use style="fill:#ffffff;stroke:#ffffff;" x="313.265455" xlink:href="#m87ff19947e" y="274.916095"/>
     <use style="fill:#ffffff;stroke:#ffffff;" x="314.077091" xlink:href="#m87ff19947e" y="277.590277"/>
     <use style="fill:#ffffff;stroke:#ffffff;" x="314.888727" xlink:href="#m87ff19947e" y="280.337097"/>
     <use style="fill:#ffffff;stroke:#ffffff;" x="315.700364" xlink:href="#m87ff19947e" y="280.378601"/>
     <use style="fill:#ffffff;stroke:#ffffff;" x="316.512" xlink:href="#m87ff19947e" y="280.930884"/>
     <use style="fill:#ffffff;stroke:#ffffff;" x="317.323636" xlink:href="#m87ff19947e" y="281.154606"/>
     <use style="fill:#ffffff;stroke:#ffffff;" x="318.135273" xlink:href="#m87ff19947e" y="280.544476"/>
     <use style="fill:#ffffff;stroke:#ffffff;" x="318.946909" xlink:href="#m87ff19947e" y="277.022002"/>
     <use style="fill:#ffffff;stroke:#ffffff;" x="319.758545" xlink:href="#m87ff19947e" y="276.558036"/>
     <use style="fill:#ffffff;stroke:#ffffff;" x="320.570182" xlink:href="#m87ff19947e" y="278.78986"/>
     <use style="fill:#ffffff;stroke:#ffffff;" x="321.381818" xlink:href="#m87ff19947e" y="282.031491"/>
     <use style="fill:#ffffff;stroke:#ffffff;" x="322.193455" xlink:href="#m87ff19947e" y="285.307048"/>
     <use style="fill:#ffffff;stroke:#ffffff;" x="323.005091" xlink:href="#m87ff19947e" y="283.087949"/>
     <use style="fill:#ffffff;stroke:#ffffff;" x="323.816727" xlink:href="#m87ff19947e" y="279.678412"/>
     <use style="fill:#ffffff;stroke:#ffffff;" x="324.628364" xlink:href="#m87ff19947e" y="278.050342"/>
     <use style="fill:#ffffff;stroke:#ffffff;" x="325.44" xlink:href="#m87ff19947e" y="280.046189"/>
     <use style="fill:#ffffff;stroke:#ffffff;" x="326.251636" xlink:href="#m87ff19947e" y="283.231778"/>
     <use style="fill:#ffffff;stroke:#ffffff;" x="327.063273" xlink:href="#m87ff19947e" y="285.020089"/>
     <use style="fill:#ffffff;stroke:#ffffff;" x="327.874909" xlink:href="#m87ff19947e" y="285.207529"/>
     <use style="fill:#ffffff;stroke:#ffffff;" x="328.686545" xlink:href="#m87ff19947e" y="280.470324"/>
     <use style="fill:#ffffff;stroke:#ffffff;" x="329.498182" xlink:href="#m87ff19947e" y="280.120811"/>
     <use style="fill:#ffffff;stroke:#ffffff;" x="330.309818" xlink:href="#m87ff19947e" y="280.888199"/>
     <use style="fill:#ffffff;stroke:#ffffff;" x="331.121455" xlink:href="#m87ff19947e" y="284.152172"/>
     <use style="fill:#ffffff;stroke:#ffffff;" x="331.933091" xlink:href="#m87ff19947e" y="285.127365"/>
     <use style="fill:#ffffff;stroke:#ffffff;" x="332.744727" xlink:href="#m87ff19947e" y="285.013396"/>
     <use style="fill:#ffffff;stroke:#ffffff;" x="333.556364" xlink:href="#m87ff19947e" y="284.426706"/>
     <use style="fill:#ffffff;stroke:#ffffff;" x="334.368" xlink:href="#m87ff19947e" y="283.226937"/>
     <use style="fill:#ffffff;stroke:#ffffff;" x="335.179636" xlink:href="#m87ff19947e" y="283.747927"/>
     <use style="fill:#ffffff;stroke:#ffffff;" x="335.991273" xlink:href="#m87ff19947e" y="285.22803"/>
     <use style="fill:#ffffff;stroke:#ffffff;" x="336.802909" xlink:href="#m87ff19947e" y="284.553777"/>
     <use style="fill:#ffffff;stroke:#ffffff;" x="337.614545" xlink:href="#m87ff19947e" y="285.349332"/>
     <use style="fill:#ffffff;stroke:#ffffff;" x="338.426182" xlink:href="#m87ff19947e" y="284.101925"/>
     <use style="fill:#ffffff;stroke:#ffffff;" x="339.237818" xlink:href="#m87ff19947e" y="283.089223"/>
     <use style="fill:#ffffff;stroke:#ffffff;" x="340.049455" xlink:href="#m87ff19947e" y="283.126806"/>
     <use style="fill:#ffffff;stroke:#ffffff;" x="340.861091" xlink:href="#m87ff19947e" y="286.18426"/>
     <use style="fill:#ffffff;stroke:#ffffff;" x="341.672727" xlink:href="#m87ff19947e" y="288.438704"/>
     <use style="fill:#ffffff;stroke:#ffffff;" x="342.484364" xlink:href="#m87ff19947e" y="285.391809"/>
     <use style="fill:#ffffff;stroke:#ffffff;" x="343.296" xlink:href="#m87ff19947e" y="283.654348"/>
     <use style="fill:#ffffff;stroke:#ffffff;" x="344.107636" xlink:href="#m87ff19947e" y="284.945581"/>
     <use style="fill:#ffffff;stroke:#ffffff;" x="344.919273" xlink:href="#m87ff19947e" y="287.442769"/>
     <use style="fill:#ffffff;stroke:#ffffff;" x="345.730909" xlink:href="#m87ff19947e" y="287.903796"/>
     <use style="fill:#ffffff;stroke:#ffffff;" x="346.542545" xlink:href="#m87ff19947e" y="287.567579"/>
     <use style="fill:#ffffff;stroke:#ffffff;" x="347.354182" xlink:href="#m87ff19947e" y="286.548356"/>
     <use style="fill:#ffffff;stroke:#ffffff;" x="348.165818" xlink:href="#m87ff19947e" y="285.74487"/>
     <use style="fill:#ffffff;stroke:#ffffff;" x="348.977455" xlink:href="#m87ff19947e" y="285.414261"/>
     <use style="fill:#ffffff;stroke:#ffffff;" x="349.789091" xlink:href="#m87ff19947e" y="284.561682"/>
     <use style="fill:#ffffff;stroke:#ffffff;" x="350.600727" xlink:href="#m87ff19947e" y="285.342144"/>
     <use style="fill:#ffffff;stroke:#ffffff;" x="351.412364" xlink:href="#m87ff19947e" y="288.507101"/>
     <use style="fill:#ffffff;stroke:#ffffff;" x="352.224" xlink:href="#m87ff19947e" y="288.591036"/>
     <use style="fill:#ffffff;stroke:#ffffff;" x="353.035636" xlink:href="#m87ff19947e" y="288.643409"/>
     <use style="fill:#ffffff;stroke:#ffffff;" x="353.847273" xlink:href="#m87ff19947e" y="288.706778"/>
     <use style="fill:#ffffff;stroke:#ffffff;" x="354.658909" xlink:href="#m87ff19947e" y="289.131569"/>
     <use style="fill:#ffffff;stroke:#ffffff;" x="355.470545" xlink:href="#m87ff19947e" y="288.413813"/>
     <use style="fill:#ffffff;stroke:#ffffff;" x="356.282182" xlink:href="#m87ff19947e" y="286.956007"/>
     <use style="fill:#ffffff;stroke:#ffffff;" x="357.093818" xlink:href="#m87ff19947e" y="285.663855"/>
     <use style="fill:#ffffff;stroke:#ffffff;" x="357.905455" xlink:href="#m87ff19947e" y="284.817911"/>
     <use style="fill:#ffffff;stroke:#ffffff;" x="358.717091" xlink:href="#m87ff19947e" y="285.021785"/>
     <use style="fill:#ffffff;stroke:#ffffff;" x="359.528727" xlink:href="#m87ff19947e" y="287.083161"/>
     <use style="fill:#ffffff;stroke:#ffffff;" x="360.340364" xlink:href="#m87ff19947e" y="291.827231"/>
     <use style="fill:#ffffff;stroke:#ffffff;" x="361.152" xlink:href="#m87ff19947e" y="292.599268"/>
     <use style="fill:#ffffff;stroke:#ffffff;" x="361.963636" xlink:href="#m87ff19947e" y="288.651476"/>
     <use style="fill:#ffffff;stroke:#ffffff;" x="362.775273" xlink:href="#m87ff19947e" y="288.254068"/>
     <use style="fill:#ffffff;stroke:#ffffff;" x="363.586909" xlink:href="#m87ff19947e" y="289.909711"/>
     <use style="fill:#ffffff;stroke:#ffffff;" x="364.398545" xlink:href="#m87ff19947e" y="288.548043"/>
     <use style="fill:#ffffff;stroke:#ffffff;" x="365.210182" xlink:href="#m87ff19947e" y="284.603246"/>
     <use style="fill:#ffffff;stroke:#ffffff;" x="366.021818" xlink:href="#m87ff19947e" y="286.716307"/>
     <use style="fill:#ffffff;stroke:#ffffff;" x="366.833455" xlink:href="#m87ff19947e" y="290.189726"/>
     <use style="fill:#ffffff;stroke:#ffffff;" x="367.645091" xlink:href="#m87ff19947e" y="289.149651"/>
     <use style="fill:#ffffff;stroke:#ffffff;" x="368.456727" xlink:href="#m87ff19947e" y="288.762867"/>
     <use style="fill:#ffffff;stroke:#ffffff;" x="369.268364" xlink:href="#m87ff19947e" y="290.387675"/>
     <use style="fill:#ffffff;stroke:#ffffff;" x="370.08" xlink:href="#m87ff19947e" y="292.870901"/>
     <use style="fill:#ffffff;stroke:#ffffff;" x="370.891636" xlink:href="#m87ff19947e" y="291.69358"/>
     <use style="fill:#ffffff;stroke:#ffffff;" x="371.703273" xlink:href="#m87ff19947e" y="289.090946"/>
     <use style="fill:#ffffff;stroke:#ffffff;" x="372.514909" xlink:href="#m87ff19947e" y="287.945345"/>
     <use style="fill:#ffffff;stroke:#ffffff;" x="373.326545" xlink:href="#m87ff19947e" y="284.830407"/>
     <use style="fill:#ffffff;stroke:#ffffff;" x="374.138182" xlink:href="#m87ff19947e" y="285.81079"/>
     <use style="fill:#ffffff;stroke:#ffffff;" x="374.949818" xlink:href="#m87ff19947e" y="289.547"/>
     <use style="fill:#ffffff;stroke:#ffffff;" x="375.761455" xlink:href="#m87ff19947e" y="292.584627"/>
     <use style="fill:#ffffff;stroke:#ffffff;" x="376.573091" xlink:href="#m87ff19947e" y="292.265148"/>
     <use style="fill:#ffffff;stroke:#ffffff;" x="377.384727" xlink:href="#m87ff19947e" y="293.478257"/>
     <use style="fill:#ffffff;stroke:#ffffff;" x="378.196364" xlink:href="#m87ff19947e" y="290.831759"/>
     <use style="fill:#ffffff;stroke:#ffffff;" x="379.008" xlink:href="#m87ff19947e" y="289.028513"/>
     <use style="fill:#ffffff;stroke:#ffffff;" x="379.819636" xlink:href="#m87ff19947e" y="286.713944"/>
     <use style="fill:#ffffff;stroke:#ffffff;" x="380.631273" xlink:href="#m87ff19947e" y="288.275811"/>
     <use style="fill:#ffffff;stroke:#ffffff;" x="381.442909" xlink:href="#m87ff19947e" y="290.223352"/>
     <use style="fill:#ffffff;stroke:#ffffff;" x="382.254545" xlink:href="#m87ff19947e" y="290.944422"/>
     <use style="fill:#ffffff;stroke:#ffffff;" x="383.066182" xlink:href="#m87ff19947e" y="292.347103"/>
     <use style="fill:#ffffff;stroke:#ffffff;" x="383.877818" xlink:href="#m87ff19947e" y="291.606361"/>
     <use style="fill:#ffffff;stroke:#ffffff;" x="384.689455" xlink:href="#m87ff19947e" y="289.77853"/>
     <use style="fill:#ffffff;stroke:#ffffff;" x="385.501091" xlink:href="#m87ff19947e" y="288.91416"/>
     <use style="fill:#ffffff;stroke:#ffffff;" x="386.312727" xlink:href="#m87ff19947e" y="291.880895"/>
     <use style="fill:#ffffff;stroke:#ffffff;" x="387.124364" xlink:href="#m87ff19947e" y="292.558983"/>
     <use style="fill:#ffffff;stroke:#ffffff;" x="387.936" xlink:href="#m87ff19947e" y="291.592839"/>
     <use style="fill:#ffffff;stroke:#ffffff;" x="388.747636" xlink:href="#m87ff19947e" y="292.246104"/>
     <use style="fill:#ffffff;stroke:#ffffff;" x="389.559273" xlink:href="#m87ff19947e" y="292.443468"/>
     <use style="fill:#ffffff;stroke:#ffffff;" x="390.370909" xlink:href="#m87ff19947e" y="290.975753"/>
     <use style="fill:#ffffff;stroke:#ffffff;" x="391.182545" xlink:href="#m87ff19947e" y="289.384687"/>
     <use style="fill:#ffffff;stroke:#ffffff;" x="391.994182" xlink:href="#m87ff19947e" y="288.457262"/>
     <use style="fill:#ffffff;stroke:#ffffff;" x="392.805818" xlink:href="#m87ff19947e" y="290.446561"/>
     <use style="fill:#ffffff;stroke:#ffffff;" x="393.617455" xlink:href="#m87ff19947e" y="291.861937"/>
     <use style="fill:#ffffff;stroke:#ffffff;" x="394.429091" xlink:href="#m87ff19947e" y="295.488"/>
     <use style="fill:#ffffff;stroke:#ffffff;" x="395.240727" xlink:href="#m87ff19947e" y="295.269538"/>
     <use style="fill:#ffffff;stroke:#ffffff;" x="396.052364" xlink:href="#m87ff19947e" y="294.341035"/>
     <use style="fill:#ffffff;stroke:#ffffff;" x="396.864" xlink:href="#m87ff19947e" y="293.13957"/>
     <use style="fill:#ffffff;stroke:#ffffff;" x="397.675636" xlink:href="#m87ff19947e" y="290.110914"/>
     <use style="fill:#ffffff;stroke:#ffffff;" x="398.487273" xlink:href="#m87ff19947e" y="288.248439"/>
    </g>
   </g>
   <g id="patch_3">
    <path d="M 57.6 307.584 
L 57.6 41.472 
" style="fill:none;stroke:#ffffff;stroke-linecap:square;stroke-linejoin:miter;stroke-width:0.8;"/>
   </g>
   <g id="patch_4">
    <path d="M 414.72 307.584 
L 414.72 41.472 
" style="fill:none;stroke:#ffffff;stroke-linecap:square;stroke-linejoin:miter;stroke-width:0.8;"/>
   </g>
   <g id="patch_5">
    <path d="M 57.6 307.584 
L 414.72 307.584 
" style="fill:none;stroke:#ffffff;stroke-linecap:square;stroke-linejoin:miter;stroke-width:0.8;"/>
   </g>
   <g id="patch_6">
    <path d="M 57.6 41.472 
L 414.72 41.472 
" style="fill:none;stroke:#ffffff;stroke-linecap:square;stroke-linejoin:miter;stroke-width:0.8;"/>
   </g>
   <g id="text_17">
    <!-- 11569_bilinear_(600-1000) -->
    <defs>
     <path d="M 50.984375 -16.609375 
L 50.984375 -23.578125 
L -0.984375 -23.578125 
L -0.984375 -16.609375 
z
" id="DejaVuSans-5f"/>
     <path d="M 48.6875 27.296875 
Q 48.6875 37.203125 44.609375 42.84375 
Q 40.53125 48.484375 33.40625 48.484375 
Q 26.265625 48.484375 22.1875 42.84375 
Q 18.109375 37.203125 18.109375 27.296875 
Q 18.109375 17.390625 22.1875 11.75 
Q 26.265625 6.109375 33.40625 6.109375 
Q 40.53125 6.109375 44.609375 11.75 
Q 48.6875 17.390625 48.6875 27.296875 
z
M 18.109375 46.390625 
Q 20.953125 51.265625 25.265625 53.625 
Q 29.59375 56 35.59375 56 
Q 45.5625 56 51.78125 48.09375 
Q 58.015625 40.1875 58.015625 27.296875 
Q 58.015625 14.40625 51.78125 6.484375 
Q 45.5625 -1.421875 35.59375 -1.421875 
Q 29.59375 -1.421875 25.265625 0.953125 
Q 20.953125 3.328125 18.109375 8.203125 
L 18.109375 0 
L 9.078125 0 
L 9.078125 75.984375 
L 18.109375 75.984375 
z
" id="DejaVuSans-62"/>
     <path d="M 31 75.875 
Q 24.46875 64.65625 21.28125 53.65625 
Q 18.109375 42.671875 18.109375 31.390625 
Q 18.109375 20.125 21.3125 9.0625 
Q 24.515625 -2 31 -13.1875 
L 23.1875 -13.1875 
Q 15.875 -1.703125 12.234375 9.375 
Q 8.59375 20.453125 8.59375 31.390625 
Q 8.59375 42.28125 12.203125 53.3125 
Q 15.828125 64.359375 23.1875 75.875 
z
" id="DejaVuSans-28"/>
     <path d="M 4.890625 31.390625 
L 31.203125 31.390625 
L 31.203125 23.390625 
L 4.890625 23.390625 
z
" id="DejaVuSans-2d"/>
     <path d="M 8.015625 75.875 
L 15.828125 75.875 
Q 23.140625 64.359375 26.78125 53.3125 
Q 30.421875 42.28125 30.421875 31.390625 
Q 30.421875 20.453125 26.78125 9.375 
Q 23.140625 -1.703125 15.828125 -13.1875 
L 8.015625 -13.1875 
Q 14.5 -2 17.703125 9.0625 
Q 20.90625 20.125 20.90625 31.390625 
Q 20.90625 42.671875 17.703125 53.65625 
Q 14.5 64.65625 8.015625 75.875 
z
" id="DejaVuSans-29"/>
    </defs>
    <g style="fill:#ffffff;" transform="translate(155.055937 35.472)scale(0.12 -0.12)">
     <use xlink:href="#DejaVuSans-31"/>
     <use x="63.623047" xlink:href="#DejaVuSans-31"/>
     <use x="127.246094" xlink:href="#DejaVuSans-35"/>
     <use x="190.869141" xlink:href="#DejaVuSans-36"/>
     <use x="254.492188" xlink:href="#DejaVuSans-39"/>
     <use x="318.115234" xlink:href="#DejaVuSans-5f"/>
     <use x="368.115234" xlink:href="#DejaVuSans-62"/>
     <use x="431.591797" xlink:href="#DejaVuSans-69"/>
     <use x="459.375" xlink:href="#DejaVuSans-6c"/>
     <use x="487.158203" xlink:href="#DejaVuSans-69"/>
     <use x="514.941406" xlink:href="#DejaVuSans-6e"/>
     <use x="578.320312" xlink:href="#DejaVuSans-65"/>
     <use x="639.84375" xlink:href="#DejaVuSans-61"/>
     <use x="701.123047" xlink:href="#DejaVuSans-72"/>
     <use x="742.236328" xlink:href="#DejaVuSans-5f"/>
     <use x="792.236328" xlink:href="#DejaVuSans-28"/>
     <use x="831.25" xlink:href="#DejaVuSans-36"/>
     <use x="894.873047" xlink:href="#DejaVuSans-30"/>
     <use x="958.496094" xlink:href="#DejaVuSans-30"/>
     <use x="1022.119141" xlink:href="#DejaVuSans-2d"/>
     <use x="1058.203125" xlink:href="#DejaVuSans-31"/>
     <use x="1121.826172" xlink:href="#DejaVuSans-30"/>
     <use x="1185.449219" xlink:href="#DejaVuSans-30"/>
     <use x="1249.072266" xlink:href="#DejaVuSans-30"/>
     <use x="1312.695312" xlink:href="#DejaVuSans-29"/>
    </g>
   </g>
  </g>
 </g>
 <defs>
  <clipPath id="p45325bdb45">
   <rect height="266.112" width="357.12" x="57.6" y="41.472"/>
  </clipPath>
 </defs>
</svg>
